<?xml version="1.0" standalone="no"?>
<!DOCTYPE svg PUBLIC "-//W3C//DTD SVG 20010904//EN"
 "http://www.w3.org/TR/2001/REC-SVG-20010904/DTD/svg10.dtd">
<svg version="1.0" xmlns="http://www.w3.org/2000/svg"
 width="1440.000000pt" height="1440.000000pt" viewBox="0 0 1440.000000 1440.000000"
 preserveAspectRatio="xMidYMid meet">
<metadata>
Created by potrace 1.14, written by Peter Selinger 2001-2017
</metadata>
<g transform="translate(0.000000,1440.000000) scale(0.100000,-0.100000)"
fill="#000000" stroke="none">
<path d="M7135 11901 c-3 -3 -18 -7 -33 -9 -15 -2 -29 -7 -30 -13 -2 -5 -8 -7
-13 -3 -5 3 -15 2 -21 -3 -7 -4 -15 -8 -18 -9 -9 -2 -44 -15 -78 -30 -18 -8
-39 -14 -47 -14 -8 0 -15 -4 -15 -10 0 -5 -3 -9 -7 -8 -9 2 -48 -9 -78 -22
-19 -8 -62 -24 -225 -86 -41 -15 -79 -31 -84 -36 -6 -4 -17 -8 -25 -8 -13 0
-122 -40 -206 -75 -16 -7 -75 -29 -130 -50 -55 -20 -109 -40 -120 -45 -19 -8
-54 -21 -65 -25 -3 -1 -18 -7 -33 -13 -16 -7 -34 -12 -41 -12 -6 0 -16 -4 -21
-9 -6 -4 -64 -28 -130 -52 -66 -24 -121 -47 -123 -51 -2 -4 -9 -5 -17 -2 -7 3
-16 1 -20 -5 -3 -6 -15 -11 -26 -11 -10 0 -19 -5 -19 -12 0 -6 -3 -9 -6 -5 -5
5 -43 -8 -189 -65 -27 -11 -56 -20 -62 -21 -7 0 -13 -4 -13 -9 0 -5 -6 -8 -12
-7 -7 1 -29 -5 -48 -13 -49 -21 -73 -31 -85 -33 -10 -3 -265 -100 -300 -114
-11 -5 -65 -26 -120 -46 -55 -21 -114 -44 -132 -51 -17 -8 -35 -14 -41 -14 -5
0 -27 -8 -48 -17 -22 -9 -42 -18 -46 -19 -5 -1 -10 -3 -13 -4 -3 -1 -8 -3 -12
-5 -5 -1 -17 -5 -28 -10 -108 -44 -252 -98 -262 -98 -7 0 -13 -4 -13 -9 0 -4
-3 -7 -7 -6 -5 1 -24 -4 -43 -11 -19 -8 -38 -14 -42 -15 -3 -1 -10 -4 -14 -8
-4 -5 -14 -8 -22 -8 -8 0 -28 -7 -45 -15 -67 -30 -135 -54 -141 -48 -3 4 -6 2
-6 -4 0 -6 -10 -13 -22 -16 -40 -8 -123 -42 -130 -52 -4 -5 -8 -7 -8 -3 0 3
-46 -12 -102 -34 -57 -22 -130 -49 -163 -60 -33 -12 -65 -25 -72 -30 -6 -5
-22 -11 -36 -13 -14 -3 -38 -12 -53 -20 -16 -8 -37 -15 -46 -15 -9 0 -19 -4
-22 -9 -3 -5 -16 -11 -28 -14 -13 -3 -52 -16 -88 -30 -127 -49 -248 -95 -485
-185 -132 -49 -251 -95 -265 -100 -22 -9 -56 -22 -70 -27 -3 -1 -14 -5 -25
-10 -96 -37 -164 -63 -243 -91 -51 -19 -106 -41 -122 -49 -17 -9 -30 -13 -30
-11 0 3 -20 -3 -45 -14 -25 -11 -45 -16 -45 -12 0 4 -4 2 -8 -3 -4 -6 -47 -25
-97 -43 -49 -18 -99 -37 -110 -42 -23 -9 -55 -22 -70 -26 -5 -2 -53 -20 -105
-40 -52 -20 -99 -37 -105 -39 -5 -1 -21 -7 -35 -12 -14 -6 -77 -31 -140 -55
-63 -25 -124 -48 -135 -53 -11 -5 -22 -9 -25 -10 -19 -5 -60 -19 -85 -30 -78
-32 -243 -94 -268 -100 -15 -4 -30 -11 -33 -16 -3 -5 -10 -7 -15 -4 -5 4 -9 1
-9 -4 0 -6 -3 -10 -7 -9 -15 5 -130 -42 -174 -71 -88 -59 -176 -176 -195 -261
-17 -77 -20 -101 -18 -146 7 -135 50 -233 144 -324 54 -53 86 -72 195 -120 82
-36 87 -38 155 -66 36 -14 79 -32 95 -39 17 -8 59 -26 95 -40 36 -15 90 -38
120 -52 30 -14 60 -26 65 -28 9 -2 22 -7 93 -37 15 -6 30 -11 35 -10 4 1 7 -2
7 -8 0 -6 3 -9 8 -8 4 1 25 -6 47 -16 22 -9 78 -33 125 -53 47 -19 101 -42
120 -50 42 -18 40 -17 205 -87 72 -30 148 -62 170 -72 22 -9 42 -18 45 -19 3
-1 18 -7 33 -13 16 -7 30 -12 32 -12 3 0 29 -11 60 -25 30 -14 80 -36 110 -50
31 -14 58 -25 60 -25 5 0 314 -129 365 -152 14 -6 27 -12 30 -13 3 -1 19 -7
36 -14 l31 -12 0 -1843 c0 -1452 3 -1854 13 -1897 28 -119 95 -216 197 -285
32 -21 85 -66 118 -99 54 -54 90 -81 165 -127 38 -23 135 -57 183 -64 23 -4
80 -6 127 -6 86 1 140 -14 354 -99 27 -10 52 -19 57 -19 4 0 18 -4 31 -9 13
-5 26 -9 31 -10 4 0 23 -7 42 -15 20 -9 36 -15 38 -14 1 0 61 -18 132 -41 72
-24 137 -44 145 -46 8 -2 36 -10 63 -18 26 -8 47 -13 47 -10 0 3 6 1 13 -5 10
-8 28 -14 92 -28 27 -6 172 -46 185 -51 8 -3 24 -8 35 -10 11 -2 38 -8 60 -14
22 -6 47 -13 55 -14 13 -3 53 -12 135 -31 11 -3 31 -7 45 -10 14 -3 30 -7 35
-8 6 -1 37 -8 70 -15 33 -7 74 -16 90 -21 17 -5 46 -11 65 -14 31 -4 59 -9
170 -31 22 -4 93 -17 170 -29 14 -3 25 -5 25 -7 0 -1 14 -3 30 -4 17 -2 30 -4
30 -5 0 -1 11 -3 25 -4 14 -1 48 -6 75 -10 28 -4 59 -9 70 -11 11 -1 38 -6 60
-9 40 -7 62 -10 165 -21 30 -3 71 -8 90 -11 19 -3 58 -7 85 -10 28 -2 68 -6
90 -9 22 -2 72 -7 110 -10 122 -10 168 -15 173 -19 2 -2 17 0 33 4 16 5 31 5
34 0 3 -5 13 -8 23 -8 9 0 89 -3 177 -8 176 -9 730 -9 895 0 258 14 407 24
445 31 17 2 64 7 105 11 99 8 125 10 190 19 30 4 66 9 80 10 14 1 50 6 80 10
30 5 72 9 92 9 21 1 38 3 38 6 0 3 15 7 33 8 18 1 44 5 57 7 34 7 111 18 133
19 9 0 17 3 17 6 0 3 10 5 23 6 22 0 47 4 147 23 30 6 69 13 85 16 27 5 98 19
150 29 11 3 43 10 70 16 28 6 61 13 75 15 14 2 36 7 50 10 14 3 32 8 40 10 8
2 16 4 18 5 1 2 10 3 20 4 9 1 28 6 40 10 13 4 34 9 45 11 12 2 92 22 177 44
85 23 163 43 174 46 10 2 44 12 75 21 31 9 61 17 66 18 6 1 26 7 45 13 19 7
89 28 155 49 156 48 374 120 450 149 33 13 92 34 130 49 39 14 84 31 100 37
17 7 35 13 40 15 13 3 203 81 235 96 43 20 77 31 86 28 4 -1 10 3 14 10 4 6
13 13 21 14 8 2 37 13 64 26 28 13 52 24 55 24 3 1 36 16 74 35 42 21 92 57
130 95 60 58 111 137 99 150 -4 3 -2 6 4 6 10 0 21 36 30 105 3 17 5 860 6
1875 1 1634 3 1846 17 1857 8 6 18 9 22 7 5 -3 8 0 8 5 0 6 6 11 13 11 6 0 25
7 40 15 19 9 25 10 21 2 -4 -7 1 -5 12 4 24 20 80 39 90 31 4 -4 4 -1 0 6 -4
6 -4 12 1 13 29 3 47 9 54 21 5 7 9 9 9 4 0 -5 6 -4 13 3 10 8 17 7 26 -2 10
-9 11 -8 5 6 -3 10 -3 17 2 16 5 -1 22 3 37 9 16 7 33 12 38 12 5 0 9 5 9 10
0 6 3 10 8 9 4 -1 18 2 32 7 14 4 27 6 29 5 2 -2 7 2 11 8 3 6 17 13 29 16 13
2 29 9 37 15 7 7 19 8 25 4 8 -5 9 -3 4 6 -6 10 -4 12 8 7 8 -3 18 0 20 7 3 7
15 16 26 19 14 3 19 1 14 -6 -3 -7 3 -4 15 6 12 11 26 16 33 11 7 -4 10 -3 6
3 -8 12 20 26 34 17 5 -3 9 0 9 7 0 6 8 9 19 6 13 -3 18 -1 14 8 -3 9 2 12 14
11 10 -2 21 1 24 6 3 5 12 11 20 12 16 3 125 51 153 67 14 8 17 8 11 -3 -3 -7
0 -5 8 4 8 10 17 15 20 11 4 -3 7 -1 7 7 0 10 4 10 17 -1 9 -8 14 -9 10 -3 -8
14 20 27 36 17 7 -3 9 -3 5 2 -9 10 40 37 53 29 5 -3 9 0 9 6 0 7 6 10 14 7 8
-3 17 1 20 10 4 9 9 13 12 10 3 -3 22 3 41 14 19 11 31 14 27 7 -4 -8 0 -7 12
2 10 9 30 21 44 27 14 6 51 23 84 38 32 15 67 24 77 22 11 -3 17 -1 14 3 -3 5
14 18 37 29 31 14 45 16 50 8 5 -8 8 -5 8 6 0 10 5 17 12 15 7 -3 20 2 30 11
9 8 27 16 40 18 12 2 25 8 29 14 3 6 9 10 13 10 16 -1 66 12 66 18 0 8 71 36
83 33 4 -1 7 3 7 9 0 6 7 9 15 5 8 -3 15 -1 15 5 0 6 7 8 16 5 8 -3 12 -2 9 4
-3 6 -1 11 4 11 18 2 24 5 65 22 21 9 43 14 49 10 6 -3 7 -1 3 6 -5 7 3 13 23
17 17 4 31 11 31 16 0 5 5 6 10 3 6 -3 10 -1 10 5 0 6 5 8 10 5 6 -3 10 -2 10
3 0 6 11 13 25 16 14 4 23 10 20 15 -2 5 6 16 19 25 14 8 26 12 29 8 2 -4 2
-2 1 5 -3 13 20 36 28 27 3 -3 5 3 4 13 0 11 5 17 14 15 8 -2 12 0 8 3 -10 10
19 65 34 65 6 0 9 3 5 6 -3 4 0 22 8 40 8 19 14 37 15 39 0 3 0 6 1 8 11 35
14 158 6 212 -2 17 -10 44 -17 60 -6 17 -13 35 -14 40 -1 10 -22 45 -58 99
-13 20 -42 49 -88 87 -23 19 -130 78 -147 80 -9 1 -49 16 -73 26 -8 3 -17 7
-20 8 -3 1 -13 5 -22 9 -9 4 -22 9 -30 10 -7 2 -26 8 -43 15 -16 7 -32 12 -35
13 -3 0 -16 6 -30 13 -34 18 -171 68 -187 68 -7 0 -13 4 -13 8 0 4 -10 9 -23
13 -13 3 -41 13 -63 22 -21 10 -46 19 -54 20 -8 2 -42 14 -75 27 -55 23 -92
38 -105 42 -3 1 -16 6 -30 12 -14 6 -42 18 -62 26 -20 8 -39 13 -42 9 -3 -3
-6 1 -6 8 0 7 -3 11 -6 8 -3 -4 -49 11 -101 33 -53 21 -100 39 -105 39 -4 0
-27 9 -51 19 -42 19 -73 30 -92 32 -5 0 -18 8 -27 16 -10 9 -18 13 -18 10 0
-4 -26 4 -57 17 -69 28 -226 90 -233 92 -3 0 -18 6 -33 12 -16 7 -31 12 -34
12 -3 0 -19 6 -36 14 -18 8 -117 47 -222 86 -104 39 -199 75 -210 80 -47 20
-254 100 -259 100 -3 0 -17 5 -33 12 -15 6 -30 12 -33 13 -7 2 -61 24 -80 32
-8 3 -17 7 -20 7 -8 2 -72 27 -107 42 -17 8 -35 14 -40 14 -4 1 -26 9 -48 20
-22 11 -44 19 -49 20 -9 0 -116 40 -161 60 -11 5 -51 20 -90 35 -38 14 -96 37
-127 50 -32 14 -58 22 -58 18 0 -3 -6 0 -13 6 -8 6 -17 8 -20 4 -4 -3 -7 -1
-7 5 0 7 -6 12 -14 12 -12 0 -105 34 -191 69 -77 32 -158 64 -170 66 -8 2
-270 102 -340 130 -11 5 -22 9 -25 10 -3 1 -14 5 -25 10 -80 33 -252 98 -262
98 -7 0 -13 4 -13 9 0 4 -7 8 -15 8 -9 0 -32 7 -53 16 -20 10 -42 18 -47 19
-6 2 -33 12 -60 23 -64 26 -201 78 -500 192 -132 50 -249 95 -260 100 -52 24
-95 38 -95 33 0 -3 -6 -1 -13 5 -7 6 -39 20 -72 32 -33 12 -69 25 -80 30 -41
17 -60 23 -67 22 -5 -1 -8 2 -8 6 0 5 -6 9 -12 9 -12 0 -120 40 -173 64 -47
20 -141 53 -147 51 -5 -1 -8 3 -8 8 0 6 -6 10 -14 10 -8 0 -27 5 -43 12 -15 6
-33 12 -39 13 -6 2 -27 10 -45 18 -82 36 -139 57 -153 57 -9 0 -16 5 -16 10 0
6 -6 10 -12 9 -7 -1 -26 3 -43 10 -16 7 -46 19 -65 26 -19 7 -48 19 -65 26
-16 6 -34 13 -40 14 -5 2 -35 13 -65 25 -99 40 -154 53 -232 55 -43 1 -80 -1
-83 -4z"/>
</g>
</svg>
