<svg width="99" height="130" viewBox="0 0 99 130" fill="none" xmlns="http://www.w3.org/2000/svg">
<path d="M96.539 97.5445V128.919H17.934C8.97802 128.919 1.69104 121.881 1.69104 113.232C1.69104 104.583 8.97802 97.5455 17.934 97.5455L96.539 97.5445Z" fill="#F2F2F2"/>
<path d="M98.469 128.677C98.469 128.998 98.3418 129.305 98.1155 129.531C97.8891 129.757 97.5821 129.884 97.262 129.884H16.532C12.1474 129.884 7.94245 128.143 4.8421 125.042C1.74175 121.942 0 117.737 0 113.352C0 108.968 1.74175 104.763 4.8421 101.663C7.94245 98.5622 12.1474 96.8205 16.532 96.8205H97.262C97.576 96.8295 97.874 96.9606 98.0929 97.1859C98.3118 97.4112 98.4343 97.7129 98.4343 98.027C98.4343 98.3411 98.3118 98.6428 98.0929 98.8681C97.874 99.0934 97.576 99.2245 97.262 99.2335H16.532C14.6679 99.2178 12.8192 99.5714 11.0925 100.274C9.3658 100.976 7.79529 102.014 6.47162 103.326C5.14794 104.639 4.0973 106.201 3.38031 107.921C2.66332 109.642 2.29416 111.488 2.29416 113.352C2.29416 115.216 2.66332 117.062 3.38031 118.783C4.0973 120.503 5.14794 122.065 6.47162 123.378C7.79529 124.69 9.3658 125.728 11.0925 126.43C12.8192 127.133 14.6679 127.486 16.532 127.471H97.262C97.5821 127.471 97.8891 127.598 98.1155 127.824C98.3418 128.05 98.469 128.357 98.469 128.677Z" fill="#FF9100"/>
<path d="M96.539 104.785H12.069C12.005 104.785 11.9435 104.76 11.8983 104.715C11.853 104.669 11.8275 104.608 11.8275 104.544C11.8275 104.48 11.853 104.419 11.8983 104.373C11.9435 104.328 12.005 104.302 12.069 104.302H96.539C96.6031 104.302 96.6645 104.328 96.7098 104.373C96.7551 104.419 96.7805 104.48 96.7805 104.544C96.7805 104.608 96.7551 104.669 96.7098 104.715C96.6645 104.76 96.6031 104.785 96.539 104.785Z" fill="#CCCCCC"/>
<path d="M96.539 110.577H12.069C12.005 110.577 11.9435 110.552 11.8983 110.507C11.853 110.461 11.8275 110.4 11.8275 110.336C11.8275 110.272 11.853 110.211 11.8983 110.165C11.9435 110.12 12.005 110.094 12.069 110.094H96.539C96.6031 110.094 96.6645 110.12 96.7098 110.165C96.7551 110.211 96.7805 110.272 96.7805 110.336C96.7805 110.4 96.7551 110.461 96.7098 110.507C96.6645 110.552 96.6031 110.577 96.539 110.577Z" fill="#CCCCCC"/>
<path d="M96.539 116.369H12.069C12.005 116.369 11.9435 116.344 11.8983 116.299C11.853 116.253 11.8275 116.192 11.8275 116.128C11.8275 116.064 11.853 116.003 11.8983 115.957C11.9435 115.912 12.005 115.886 12.069 115.886H96.539C96.6031 115.886 96.6645 115.912 96.7098 115.957C96.7551 116.003 96.7805 116.064 96.7805 116.128C96.7805 116.192 96.7551 116.253 96.7098 116.299C96.6645 116.344 96.6031 116.369 96.539 116.369Z" fill="#CCCCCC"/>
<path d="M96.539 122.162H12.069C12.005 122.162 11.9435 122.137 11.8983 122.092C11.853 122.046 11.8275 121.985 11.8275 121.921C11.8275 121.857 11.853 121.796 11.8983 121.75C11.9435 121.705 12.005 121.68 12.069 121.68H96.539C96.6031 121.68 96.6645 121.705 96.7098 121.75C96.7551 121.796 96.7805 121.857 96.7805 121.921C96.7805 121.985 96.7551 122.046 96.7098 122.092C96.6645 122.137 96.6031 122.162 96.539 122.162Z" fill="#CCCCCC"/>
<path d="M63.7079 94.2475H60.9489L59.637 83.6055H63.709L63.7079 94.2475Z" fill="#FFB8B8"/>
<path d="M58.977 93.4585H64.2979V96.8085H55.627C55.627 95.92 55.9799 95.0679 56.6082 94.4397C57.2364 93.8114 58.0885 93.4585 58.977 93.4585Z" fill="#2F2E41"/>
<path d="M35.52 94.2475H32.761L31.449 83.6055H35.521L35.52 94.2475Z" fill="#FFB8B8"/>
<path d="M30.7899 93.4585H36.1109V96.8085H27.4399C27.4399 95.92 27.7929 95.0679 28.4211 94.4397C29.0494 93.8114 29.9015 93.4585 30.7899 93.4585Z" fill="#2F2E41"/>
<path d="M44.736 15.3065V14.0995C44.736 13.0774 44.9373 12.0653 45.3284 11.121C45.7195 10.1768 46.2928 9.31877 47.0155 8.59605C47.7383 7.87334 48.5963 7.30005 49.5405 6.90892C50.4848 6.51779 51.4969 6.31647 52.519 6.31647C54.5831 6.31647 56.5628 7.13646 58.0224 8.59605C59.482 10.0556 60.3019 12.0353 60.3019 14.0995V15.3065C60.3019 16.7946 59.7108 18.2218 58.6585 19.274C57.6063 20.3263 56.1791 20.9175 54.6909 20.9175H50.347C48.8588 20.9175 47.4316 20.3263 46.3794 19.274C45.3271 18.2218 44.736 16.7946 44.736 15.3065Z" fill="#2F2E41"/>
<path d="M52.52 21.3335C55.794 21.3335 58.448 18.6794 58.448 15.4055C58.448 12.1315 55.794 9.47748 52.52 9.47748C49.2461 9.47748 46.592 12.1315 46.592 15.4055C46.592 18.6794 49.2461 21.3335 52.52 21.3335Z" fill="#FFB8B8"/>
<path d="M20.277 35.7775C20.5172 35.5502 20.8043 35.3783 21.1181 35.2739C21.432 35.1695 21.7648 35.1352 22.0933 35.1733C22.4218 35.2114 22.738 35.3211 23.0196 35.4946C23.3011 35.6681 23.5412 35.9012 23.723 36.1775L28.804 35.2165L30.141 38.1615L22.946 39.4185C22.4609 39.6933 21.8918 39.7805 21.3467 39.6633C20.8016 39.5462 20.3185 39.233 19.9891 38.7832C19.6597 38.3334 19.5069 37.7783 19.5598 37.2233C19.6127 36.6683 19.8676 36.152 20.276 35.7725L20.277 35.7775Z" fill="#FFB8B8"/>
<path d="M47.898 25.0655L47.964 25.1655L39.631 30.6545L25.571 35.1445C25.3851 35.2044 25.2256 35.3267 25.1195 35.4907C25.0135 35.6547 24.9673 35.8504 24.989 36.0445L25.296 38.6865C25.3095 38.8034 25.3474 38.9163 25.4071 39.0177C25.4668 39.1192 25.5471 39.2071 25.6427 39.2757C25.7384 39.3443 25.8473 39.3922 25.9626 39.4163C26.0778 39.4404 26.1968 39.4401 26.312 39.4155L39.545 36.5795C40.1853 36.4431 40.7909 36.1766 41.324 35.7965L50.685 29.1365C51.2117 28.7757 51.5735 28.2204 51.6908 27.5928C51.8081 26.9652 51.6713 26.3167 51.3105 25.79C50.9497 25.2633 50.3944 24.9015 49.7668 24.7842C49.1392 24.6669 48.4907 24.8036 47.964 25.1645L47.898 25.0655Z" fill="#D67E09"/>
<path d="M60.998 91.2275C60.786 91.2278 60.5785 91.1663 60.4008 91.0505C60.2232 90.9347 60.0832 90.7696 59.998 90.5755L47.349 59.3215C47.3195 59.2536 47.2699 59.1965 47.207 59.1577C47.144 59.1188 47.0706 59.1003 46.9968 59.1044C46.9229 59.1085 46.8521 59.1352 46.7939 59.1808C46.7356 59.2264 46.6927 59.2888 46.671 59.3595L36.353 89.7855C36.3097 89.9272 36.2379 90.0586 36.1419 90.1716C36.0459 90.2845 35.9278 90.3766 35.7948 90.4422C35.6619 90.5078 35.517 90.5454 35.3689 90.5529C35.2209 90.5603 35.0729 90.5374 34.934 90.4855L31.474 89.1855C31.286 89.1158 31.121 88.9954 30.9975 88.8376C30.8739 88.6797 30.7965 88.4907 30.774 88.2915C29.217 74.7295 42.793 40.4985 42.93 40.1535L42.968 40.0535L55.343 42.7915L55.369 42.8195C60.306 48.2055 64.369 82.1785 65.128 88.9345C65.1566 89.1786 65.1011 89.425 64.9708 89.6334C64.8404 89.8417 64.643 89.9994 64.411 90.0805L61.356 91.1605C61.2414 91.203 61.1203 91.2257 60.998 91.2275Z" fill="#374B5C"/>
<path d="M50.335 43.8984C47.335 43.8984 43.994 43.2985 42.965 40.8335L42.941 40.7764L42.973 40.7234C43.785 39.3904 44.859 37.1174 44.282 36.6914C43.6876 36.1977 43.2263 35.5631 42.94 34.8454C42.6537 34.1277 42.5516 33.3497 42.643 32.5824C42.7264 30.5428 43.4383 28.5788 44.6812 26.9594C45.9241 25.34 47.6373 24.1445 49.586 23.5364C50.7153 23.1751 51.8645 22.8793 53.028 22.6504C53.8762 22.4793 54.7519 22.4981 55.592 22.7056C56.4322 22.9131 57.2159 23.3041 57.887 23.8505C58.5673 24.3999 59.1175 25.0932 59.4978 25.8806C59.8782 26.6681 60.0794 27.53 60.087 28.4044C60.129 32.7804 59.456 38.8744 56.005 43.0584C55.8435 43.2527 55.6186 43.3837 55.37 43.4284C53.7082 43.7289 52.0237 43.8862 50.335 43.8984Z" fill="#D67E09"/>
<path d="M49.2199 43.7375C49.3831 43.1521 49.7708 42.6548 50.2987 42.3536C50.8266 42.0525 51.452 41.972 52.0389 42.1295C52.1586 42.1629 52.2753 42.206 52.3879 42.2585L56.2459 38.7475L58.9289 40.5555L53.4109 45.4385C53.1621 45.888 52.7698 46.2413 52.2968 46.442C51.8237 46.6426 51.2971 46.679 50.8009 46.5455C50.5119 46.4663 50.2415 46.3306 50.0052 46.1462C49.769 45.9618 49.5717 45.7324 49.4246 45.4713C49.2776 45.2102 49.1838 44.9225 49.1487 44.6249C49.1136 44.3273 49.1378 44.0257 49.2199 43.7375Z" fill="#FFB8B8"/>
<path d="M55.635 43.7795C55.3845 43.7797 55.1417 43.6931 54.9479 43.5345L53.4269 42.2915C53.3006 42.1878 53.1993 42.057 53.1305 41.9087C53.0617 41.7605 53.0273 41.5986 53.0298 41.4352C53.0323 41.2718 53.0716 41.111 53.1449 40.9649C53.2182 40.8189 53.3235 40.6912 53.4529 40.5915L59.835 35.6975C59.9106 35.6391 59.9602 35.5532 59.9729 35.4584C59.9856 35.3637 59.9605 35.2678 59.903 35.1915L55.9639 29.9845C55.5064 29.3816 55.2768 28.6362 55.316 27.8804C55.3551 27.1245 55.6605 26.4069 56.1779 25.8545C56.7233 25.2664 57.4697 24.9046 58.2692 24.8407C59.0687 24.7768 59.8631 25.0155 60.4949 25.5095L60.52 25.5355L64.6329 31.4245C65.0776 31.7732 65.4357 32.2201 65.6791 32.7301C65.9226 33.2401 66.0449 33.7995 66.0365 34.3645C66.0281 34.9296 65.8892 35.4851 65.6306 35.9876C65.3721 36.4901 65.0008 36.9261 64.546 37.2615L56.2809 43.5695C56.0935 43.7066 55.8672 43.7802 55.635 43.7795Z" fill="#D67E09"/>
<path d="M47.2691 13.7375V10.7995L52.5201 8.50647L57.526 10.7995V13.7405C57.526 13.8686 57.4752 13.9914 57.3846 14.082C57.294 14.1726 57.1712 14.2235 57.0431 14.2235H47.751C47.6874 14.2233 47.6245 14.2106 47.5658 14.1861C47.5072 14.1616 47.4539 14.1257 47.4091 14.0806C47.3643 14.0354 47.3289 13.9819 47.3048 13.923C47.2808 13.8641 47.2687 13.8011 47.2691 13.7375Z" fill="#2F2E41"/>
<path d="M52.2779 6.70648C51.9769 5.44431 52.1389 4.116 52.7347 2.96325C53.3304 1.81051 54.3202 0.909955 55.5239 0.425473C56.7487 -0.00654474 58.0649 -0.111836 59.3428 0.119992C60.6206 0.35182 61.816 0.912765 62.811 1.74748C64.7852 3.45353 66.1656 5.74319 66.7529 8.28547C67.3292 10.8126 67.6356 13.3937 67.6669 15.9855C68.7812 16.1901 69.7974 16.755 70.5594 17.5932C71.3215 18.4315 71.7873 19.4968 71.8852 20.6254C71.9831 21.754 71.7077 22.8836 71.1014 23.8406C70.495 24.7975 69.5913 25.5289 68.5289 25.9224C67.4666 26.3159 66.3044 26.3497 65.221 26.0186C64.1376 25.6875 63.1928 25.0098 62.5319 24.0897C61.871 23.1696 61.5305 22.058 61.5626 20.9255C61.5948 19.7931 61.9979 18.7026 62.71 17.8215C63.6004 16.7196 64.0978 15.3521 64.1234 13.9357C64.149 12.5192 63.7012 11.1347 62.8511 10.0014C62.001 8.86806 60.7971 8.05077 59.43 7.67892C58.063 7.30708 56.611 7.40193 55.3039 7.94847C53.8529 8.55147 52.0309 6.97448 52.2779 6.70648Z" fill="#2F2E41"/>
<path d="M19.188 24.3685C15.6623 24.3454 12.1807 23.583 8.96803 22.1305C8.77682 22.0454 8.6145 21.9064 8.50086 21.7306C8.38723 21.5549 8.32717 21.3498 8.32801 21.1405V12.3515C8.32828 12.0636 8.44279 11.7875 8.6464 11.5839C8.85001 11.3803 9.12607 11.2658 9.41401 11.2655H28.963C29.251 11.2658 29.5271 11.3803 29.7307 11.5839C29.9343 11.7875 30.0488 12.0636 30.049 12.3515V21.1405C30.0499 21.3498 29.9898 21.5549 29.8762 21.7306C29.7625 21.9064 29.6002 22.0454 29.409 22.1305C26.1961 23.5832 22.7141 24.3456 19.188 24.3685Z" fill="#FF9100"/>
<path d="M19.185 17.2485C19.04 17.2486 18.8966 17.2197 18.763 17.1635L3.26297 10.6235C3.06306 10.5391 2.89301 10.3969 2.77472 10.215C2.65643 10.0331 2.59532 9.81991 2.5993 9.60297C2.60329 9.38603 2.67217 9.17526 2.79706 8.99782C2.92194 8.82039 3.09712 8.68444 3.29999 8.60749L18.8 2.72649C19.0495 2.6308 19.3255 2.6308 19.575 2.72649L34.869 8.60749C35.0706 8.6851 35.2445 8.8211 35.3685 8.99808C35.4924 9.17507 35.5607 9.38501 35.5647 9.60103C35.5687 9.81706 35.5081 10.0294 35.3907 10.2108C35.2734 10.3922 35.1046 10.5345 34.906 10.6195L19.611 17.1595C19.4764 17.2176 19.3315 17.2478 19.185 17.2485Z" fill="#FF9100"/>
<path d="M10.137 22.7285C10.9367 22.7285 11.585 22.0802 11.585 21.2805C11.585 20.4808 10.9367 19.8325 10.137 19.8325C9.33726 19.8325 8.68896 20.4808 8.68896 21.2805C8.68896 22.0802 9.33726 22.7285 10.137 22.7285Z" fill="white"/>
<path opacity="0.2" d="M34.96 9.69249L19.6649 16.2325C19.5455 16.2832 19.4172 16.3093 19.2874 16.3093C19.1577 16.3093 19.0293 16.2832 18.9099 16.2325L3.40994 9.69249C3.21506 9.61233 3.05247 9.46946 2.94793 9.2865C2.87966 9.40506 2.83739 9.53678 2.82391 9.67293C2.81043 9.80908 2.82606 9.94654 2.86975 10.0762C2.91344 10.2058 2.98419 10.3247 3.07733 10.4249C3.17046 10.5252 3.28383 10.6044 3.40994 10.6575L18.9099 17.1975C19.0293 17.2482 19.1577 17.2744 19.2874 17.2744C19.4172 17.2744 19.5456 17.2482 19.6649 17.1975L34.96 10.6575C35.0854 10.6039 35.198 10.5243 35.2904 10.4241C35.3828 10.3238 35.4529 10.205 35.4961 10.0757C35.5393 9.94633 35.5545 9.8093 35.5409 9.67361C35.5272 9.53793 35.485 9.40667 35.417 9.2885C35.3133 9.46983 35.1526 9.61185 34.96 9.69249Z" fill="black"/>
<path d="M10.258 21.2755C10.2897 21.2755 10.321 21.2693 10.3502 21.2572C10.3795 21.245 10.406 21.2273 10.4284 21.2049C10.4508 21.1825 10.4685 21.156 10.4807 21.1267C10.4928 21.0975 10.499 21.0661 10.499 21.0345V12.9585L18.459 10.0585C18.4907 10.059 18.5222 10.0532 18.5517 10.0415C18.5812 10.0297 18.608 10.0123 18.6308 9.99023C18.6535 9.96813 18.6717 9.94177 18.6843 9.91264C18.6968 9.88352 18.7035 9.85221 18.704 9.8205C18.7044 9.78878 18.6987 9.75729 18.687 9.72781C18.6752 9.69834 18.6579 9.67145 18.6358 9.6487C18.6137 9.62595 18.5873 9.60778 18.5581 9.59521C18.529 9.58265 18.4977 9.57596 18.466 9.5755L10.506 12.4755C10.4419 12.474 10.3782 12.4856 10.3187 12.5095C10.2593 12.5334 10.2052 12.5691 10.16 12.6145C10.1142 12.6593 10.0779 12.7128 10.0531 12.7719C10.0284 12.831 10.0158 12.8944 10.016 12.9585V21.0325C10.0157 21.0644 10.0218 21.096 10.0339 21.1256C10.0459 21.1551 10.0637 21.182 10.0862 21.2046C10.1087 21.2272 10.1355 21.2451 10.165 21.2572C10.1945 21.2694 10.2261 21.2756 10.258 21.2755Z" fill="white"/>
</svg>
