<svg width="99" height="131" viewBox="0 0 99 131" fill="none" xmlns="http://www.w3.org/2000/svg">
<path d="M96.6143 98.308V129.683H18.0093C9.05334 129.683 1.76636 122.645 1.76636 113.996C1.76636 105.347 9.05334 98.309 18.0093 98.309L96.6143 98.308Z" fill="#F2F2F2"/>
<path d="M98.5443 129.441C98.5443 129.761 98.4172 130.068 98.1908 130.294C97.9644 130.521 97.6574 130.648 97.3373 130.648H16.6073C12.2227 130.648 8.01777 128.906 4.91742 125.806C1.81707 122.706 0.0753174 118.501 0.0753174 114.116C0.0753174 109.731 1.81707 105.526 4.91742 102.426C8.01777 99.3258 12.2227 97.584 16.6073 97.584H97.3373C97.6513 97.5931 97.9494 97.7242 98.1682 97.9495C98.3871 98.1747 98.5096 98.4764 98.5096 98.7905C98.5096 99.1046 98.3871 99.4064 98.1682 99.6317C97.9494 99.8569 97.6513 99.988 97.3373 99.9971H16.6073C14.7432 99.9814 12.8945 100.335 11.1678 101.037C9.44111 101.74 7.87061 102.777 6.54694 104.09C5.22326 105.403 4.17262 106.964 3.45563 108.685C2.73863 110.406 2.36948 112.251 2.36948 114.116C2.36948 115.98 2.73863 117.825 3.45563 119.546C4.17262 121.267 5.22326 122.829 6.54694 124.141C7.87061 125.454 9.44111 126.491 11.1678 127.194C12.8945 127.896 14.7432 128.25 16.6073 128.234H97.3373C97.6574 128.234 97.9644 128.361 98.1908 128.588C98.4172 128.814 98.5443 129.121 98.5443 129.441Z" fill="#FFD297"/>
<path d="M96.6143 105.549H12.1443C12.0803 105.549 12.0189 105.524 11.9736 105.478C11.9283 105.433 11.9028 105.372 11.9028 105.308C11.9028 105.244 11.9283 105.182 11.9736 105.137C12.0189 105.091 12.0803 105.066 12.1443 105.066H96.6143C96.6784 105.066 96.7398 105.091 96.7851 105.137C96.8304 105.182 96.8558 105.244 96.8558 105.308C96.8558 105.372 96.8304 105.433 96.7851 105.478C96.7398 105.524 96.6784 105.549 96.6143 105.549Z" fill="#CCCCCC"/>
<path d="M96.6143 111.341H12.1443C12.0803 111.341 12.0189 111.316 11.9736 111.27C11.9283 111.225 11.9028 111.164 11.9028 111.1C11.9028 111.035 11.9283 110.974 11.9736 110.929C12.0189 110.883 12.0803 110.858 12.1443 110.858H96.6143C96.6784 110.858 96.7398 110.883 96.7851 110.929C96.8304 110.974 96.8558 111.035 96.8558 111.1C96.8558 111.164 96.8304 111.225 96.7851 111.27C96.7398 111.316 96.6784 111.341 96.6143 111.341Z" fill="#CCCCCC"/>
<path d="M96.6143 117.133H12.1443C12.0803 117.133 12.0189 117.108 11.9736 117.062C11.9283 117.017 11.9028 116.956 11.9028 116.892C11.9028 116.827 11.9283 116.766 11.9736 116.721C12.0189 116.675 12.0803 116.65 12.1443 116.65H96.6143C96.6784 116.65 96.7398 116.675 96.7851 116.721C96.8304 116.766 96.8558 116.827 96.8558 116.892C96.8558 116.956 96.8304 117.017 96.7851 117.062C96.7398 117.108 96.6784 117.133 96.6143 117.133Z" fill="#CCCCCC"/>
<path d="M96.6143 122.926H12.1443C12.0803 122.926 12.0189 122.901 11.9736 122.855C11.9283 122.81 11.9028 122.749 11.9028 122.685C11.9028 122.621 11.9283 122.559 11.9736 122.514C12.0189 122.469 12.0803 122.443 12.1443 122.443H96.6143C96.6784 122.443 96.7398 122.469 96.7851 122.514C96.8304 122.559 96.8558 122.621 96.8558 122.685C96.8558 122.749 96.8304 122.81 96.7851 122.855C96.7398 122.901 96.6784 122.926 96.6143 122.926Z" fill="#CCCCCC"/>
<path d="M63.7833 95.011H61.0243L59.7123 84.369H63.7843L63.7833 95.011Z" fill="#FFB8B8"/>
<path d="M59.0523 94.222H64.3733V97.572H55.7023C55.7023 96.6835 56.0553 95.8315 56.6835 95.2032C57.3118 94.575 58.1639 94.222 59.0523 94.222Z" fill="#2F2E41"/>
<path d="M35.5953 95.011H32.8363L31.5243 84.369H35.5963L35.5953 95.011Z" fill="#FFB8B8"/>
<path d="M30.8653 94.222H36.1863V97.572H27.5153C27.5153 96.6835 27.8682 95.8315 28.4964 95.2032C29.1247 94.575 29.9768 94.222 30.8653 94.222Z" fill="#2F2E41"/>
<path d="M44.8113 16.07V14.863C44.8113 13.8409 45.0126 12.8289 45.4037 11.8846C45.7948 10.9403 46.3681 10.0823 47.0909 9.3596C47.8136 8.63689 48.6716 8.0636 49.6158 7.67247C50.5601 7.28134 51.5722 7.08002 52.5943 7.08002C54.6584 7.08002 56.6381 7.90001 58.0977 9.3596C59.5573 10.8192 60.3773 12.7988 60.3773 14.863V16.07C60.3773 17.5582 59.7861 18.9853 58.7339 20.0376C57.6816 21.0899 56.2544 21.681 54.7663 21.681H50.4223C48.9341 21.681 47.5069 21.0899 46.4547 20.0376C45.4024 18.9853 44.8113 17.5582 44.8113 16.07Z" fill="#2F2E41"/>
<path d="M52.5954 22.097C55.8693 22.097 58.5234 19.443 58.5234 16.169C58.5234 12.8951 55.8693 10.241 52.5954 10.241C49.3214 10.241 46.6674 12.8951 46.6674 16.169C46.6674 19.443 49.3214 22.097 52.5954 22.097Z" fill="#FFB8B8"/>
<path d="M20.3523 36.541C20.5925 36.3137 20.8797 36.1418 21.1935 36.0374C21.5073 35.933 21.8401 35.8987 22.1687 35.9368C22.4972 35.975 22.8133 36.0847 23.0949 36.2582C23.3764 36.4317 23.6166 36.6647 23.7983 36.941L28.8793 35.98L30.2163 38.925L23.0213 40.182C22.5362 40.4569 21.9671 40.544 21.422 40.4269C20.8769 40.3098 20.3938 39.9966 20.0644 39.5468C19.735 39.097 19.5823 38.5418 19.6351 37.9868C19.688 37.4318 19.9429 36.9155 20.3513 36.536L20.3523 36.541Z" fill="#FFB8B8"/>
<path d="M47.9733 25.829L48.0393 25.929L39.7063 31.418L25.6463 35.908C25.4604 35.9679 25.3009 36.0903 25.1948 36.2543C25.0888 36.4183 25.0427 36.6139 25.0643 36.808L25.3713 39.45C25.3849 39.567 25.4227 39.6798 25.4824 39.7813C25.5421 39.8828 25.6224 39.9706 25.718 40.0393C25.8137 40.1079 25.9226 40.1558 26.0379 40.1798C26.1531 40.2039 26.2722 40.2036 26.3873 40.179L39.6203 37.343C40.2607 37.2066 40.8662 36.9401 41.3993 36.56L50.7603 29.9C51.287 29.5392 51.6488 28.9839 51.7661 28.3563C51.8834 27.7287 51.7466 27.0803 51.3858 26.5535C51.025 26.0268 50.4697 25.665 49.8421 25.5477C49.2145 25.4304 48.566 25.5672 48.0393 25.928L47.9733 25.829Z" fill="white"/>
<path d="M61.0733 91.991C60.8613 91.9914 60.6538 91.9299 60.4762 91.8141C60.2985 91.6983 60.1585 91.5332 60.0733 91.339L47.4243 60.085C47.3948 60.0172 47.3453 59.96 47.2823 59.9212C47.2193 59.8824 47.146 59.8638 47.0721 59.868C46.9982 59.8721 46.9274 59.8987 46.8692 59.9443C46.811 59.9899 46.7681 60.0523 46.7463 60.123L36.4283 90.549C36.385 90.6908 36.3132 90.8222 36.2172 90.9351C36.1212 91.0481 36.0031 91.1402 35.8701 91.2057C35.7372 91.2713 35.5923 91.309 35.4442 91.3164C35.2962 91.3239 35.1482 91.3009 35.0093 91.249L31.5493 89.949C31.3613 89.8794 31.1964 89.7589 31.0728 89.6011C30.9492 89.4433 30.8718 89.2542 30.8493 89.055C29.2923 75.493 42.8683 41.262 43.0053 40.917L43.0433 40.817L55.4183 43.555L55.4443 43.583C60.3813 48.969 64.4443 82.942 65.2033 89.698C65.2319 89.9421 65.1764 90.1886 65.0461 90.3969C64.9157 90.6052 64.7183 90.7629 64.4864 90.844L61.4313 91.924C61.3167 91.9665 61.1956 91.9892 61.0733 91.991Z" fill="#374B5C"/>
<path d="M50.4103 44.662C47.4103 44.662 44.0693 44.062 43.0403 41.597L43.0163 41.54L43.0483 41.487C43.8603 40.154 44.9343 37.881 44.3573 37.455C43.7629 36.9612 43.3016 36.3266 43.0153 35.6089C42.729 34.8912 42.6269 34.1133 42.7183 33.346C42.8017 31.3063 43.5136 29.3423 44.7565 27.723C45.9995 26.1036 47.7126 24.908 49.6613 24.3C50.7906 23.9386 51.9399 23.6428 53.1033 23.414C53.9516 23.2428 54.8272 23.2617 55.6673 23.4691C56.5075 23.6766 57.2912 24.0676 57.9623 24.614C58.6426 25.1634 59.1928 25.8568 59.5732 26.6442C59.9536 27.4316 60.1548 28.2935 60.1623 29.168C60.2043 33.544 59.5313 39.638 56.0803 43.822C55.9188 44.0162 55.6939 44.1472 55.4453 44.192C53.7835 44.4925 52.099 44.6497 50.4103 44.662Z" fill="white"/>
<path d="M49.2952 44.501C49.4584 43.9156 49.8461 43.4183 50.374 43.1172C50.9019 42.8161 51.5273 42.7355 52.1142 42.893C52.2339 42.9264 52.3506 42.9696 52.4632 43.022L56.3212 39.511L59.0042 41.319L53.4863 46.202C53.2374 46.6516 52.8451 47.0049 52.3721 47.2055C51.899 47.4061 51.3724 47.4426 50.8762 47.3091C50.5872 47.2299 50.3168 47.0941 50.0806 46.9098C49.8443 46.7254 49.647 46.496 49.5 46.2349C49.3529 45.9737 49.2592 45.6861 49.224 45.3885C49.1889 45.0909 49.2131 44.7892 49.2952 44.501Z" fill="#FFB8B8"/>
<path d="M55.7103 44.543C55.4598 44.5432 55.217 44.4567 55.0233 44.298L53.5023 43.055C53.3759 42.9514 53.2746 42.8205 53.2058 42.6723C53.1371 42.524 53.1026 42.3622 53.1051 42.1987C53.1076 42.0353 53.147 41.8746 53.2202 41.7285C53.2935 41.5824 53.3988 41.4548 53.5283 41.355L59.9103 36.461C59.986 36.4026 60.0355 36.3167 60.0482 36.222C60.061 36.1273 60.0358 36.0313 59.9783 35.955L56.0393 30.748C55.5817 30.1451 55.3521 29.3998 55.3913 28.6439C55.4305 27.888 55.7358 27.1704 56.2532 26.618C56.7987 26.03 57.545 25.6682 58.3445 25.6043C59.144 25.5404 59.9384 25.7791 60.5703 26.273L60.5953 26.299L64.7083 32.188C65.1529 32.5368 65.511 32.9836 65.7545 33.4936C65.9979 34.0036 66.1202 34.563 66.1118 35.1281C66.1034 35.6932 65.9645 36.2486 65.7059 36.7512C65.4474 37.2537 65.0762 37.6896 64.6213 38.025L56.3563 44.333C56.1689 44.4702 55.9425 44.5437 55.7103 44.543Z" fill="white"/>
<path d="M47.3444 14.501V11.563L52.5954 9.27002L57.6014 11.563V14.504C57.6014 14.6321 57.5505 14.755 57.4599 14.8456C57.3693 14.9361 57.2465 14.987 57.1184 14.987H47.8264C47.7628 14.9869 47.6998 14.9742 47.6412 14.9497C47.5825 14.9252 47.5292 14.8893 47.4844 14.8441C47.4396 14.799 47.4042 14.7454 47.3802 14.6865C47.3561 14.6277 47.344 14.5646 47.3444 14.501Z" fill="#2F2E41"/>
<path d="M52.3533 7.47003C52.0522 6.20786 52.2143 4.87955 52.81 3.7268C53.4057 2.57406 54.3955 1.6735 55.5992 1.18902C56.824 0.757005 58.1402 0.651714 59.4181 0.883542C60.6959 1.11537 61.8913 1.67631 62.8863 2.51103C64.8605 4.21708 66.241 6.50674 66.8282 9.04902C67.4045 11.5761 67.7109 14.1572 67.7422 16.749C68.8565 16.9537 69.8727 17.5185 70.6348 18.3568C71.3968 19.195 71.8626 20.2603 71.9605 21.389C72.0584 22.5176 71.783 23.6472 71.1767 24.6041C70.5703 25.5611 69.6666 26.2924 68.6042 26.6859C67.5419 27.0794 66.3797 27.1132 65.2963 26.7821C64.2129 26.451 63.2682 25.7734 62.6072 24.8533C61.9463 23.9332 61.6058 22.8215 61.6379 21.6891C61.6701 20.5567 62.0732 19.4661 62.7853 18.585C63.6757 17.4831 64.1732 16.1157 64.1987 14.6992C64.2243 13.2827 63.7766 11.8982 62.9264 10.7649C62.0763 9.63161 60.8724 8.81431 59.5054 8.44247C58.1383 8.07063 56.6863 8.16548 55.3793 8.71202C53.9283 9.31502 52.1063 7.73803 52.3533 7.47003Z" fill="#2F2E41"/>
<path d="M19.2633 25.132C15.7377 25.109 12.256 24.3466 9.04334 22.8941C8.85214 22.8089 8.68982 22.67 8.57618 22.4942C8.46255 22.3184 8.40249 22.1134 8.40333 21.9041V13.1151C8.40359 12.8271 8.51811 12.551 8.72172 12.3474C8.92533 12.1438 9.20138 12.0293 9.48933 12.0291H29.0383C29.3263 12.0293 29.6024 12.1438 29.806 12.3474C30.0096 12.551 30.1241 12.8271 30.1243 13.1151V21.9041C30.1252 22.1134 30.0651 22.3184 29.9515 22.4942C29.8379 22.67 29.6756 22.8089 29.4844 22.8941C26.2714 24.3467 22.7894 25.1091 19.2633 25.132Z" fill="white" stroke="#FF9100"/>
<path d="M19.2603 18.012C19.1154 18.0121 18.9719 17.9832 18.8383 17.927L3.33829 11.387C3.13838 11.3027 2.96833 11.1604 2.85004 10.9785C2.73175 10.7966 2.67064 10.5835 2.67462 10.3665C2.6786 10.1496 2.74749 9.93881 2.87238 9.76137C2.99726 9.58394 3.17243 9.44799 3.3753 9.37104L18.8753 3.49004C19.1248 3.39435 19.4008 3.39435 19.6503 3.49004L34.9443 9.37104C35.1459 9.44865 35.3199 9.58465 35.4438 9.76163C35.5677 9.93862 35.636 10.1486 35.64 10.3646C35.644 10.5806 35.5834 10.7929 35.4661 10.9743C35.3487 11.1558 35.1799 11.2981 34.9813 11.383L19.6863 17.923C19.5517 17.9811 19.4068 18.0114 19.2603 18.012Z" fill="white" stroke="#FF9100"/>
<path d="M10.2123 23.492C11.012 23.492 11.6603 22.8437 11.6603 22.044C11.6603 21.2443 11.012 20.596 10.2123 20.596C9.41257 20.596 8.76428 21.2443 8.76428 22.044C8.76428 22.8437 9.41257 23.492 10.2123 23.492Z" fill="#FF9100"/>
<path d="M10.3333 22.039C10.365 22.039 10.3963 22.0328 10.4255 22.0207C10.4548 22.0086 10.4814 21.9908 10.5037 21.9685C10.5261 21.9461 10.5439 21.9195 10.556 21.8903C10.5681 21.861 10.5743 21.8297 10.5743 21.798V13.722L18.5343 10.8221C18.566 10.8225 18.5975 10.8167 18.627 10.805C18.6565 10.7933 18.6833 10.7759 18.7061 10.7538C18.7288 10.7317 18.747 10.7053 18.7596 10.6762C18.7722 10.6471 18.7788 10.6158 18.7793 10.584C18.7798 10.5523 18.774 10.5208 18.7623 10.4914C18.7506 10.4619 18.7332 10.435 18.7111 10.4122C18.689 10.3895 18.6626 10.3713 18.6335 10.3588C18.6043 10.3462 18.573 10.3395 18.5413 10.3391L10.5813 13.239C10.5172 13.2376 10.4535 13.2491 10.3941 13.273C10.3346 13.2969 10.2805 13.3326 10.2353 13.3781C10.1895 13.4228 10.1532 13.4764 10.1285 13.5355C10.1037 13.5945 10.0911 13.658 10.0913 13.722V21.7961C10.0911 21.828 10.0971 21.8596 10.1092 21.8891C10.1212 21.9187 10.139 21.9455 10.1615 21.9681C10.184 21.9907 10.2108 22.0086 10.2403 22.0208C10.2698 22.033 10.3014 22.0392 10.3333 22.039Z" fill="#FF9100"/>
</svg>
