<svg width="142" height="246" viewBox="0 0 142 246" fill="none" xmlns="http://www.w3.org/2000/svg">
<path d="M107.129 93.876L103.897 158.803L-58.7676 150.709C-77.3009 149.786 -91.6551 134.472 -90.7645 116.572C-89.8739 98.6725 -74.07 84.859 -55.536 85.782L107.129 93.876Z" fill="#F2F2F2"/>
<path d="M107.916 158.501C107.883 159.163 107.589 159.785 107.097 160.23C106.605 160.675 105.957 160.907 105.295 160.874L-61.7644 152.561C-70.8379 152.11 -79.3603 148.072 -85.4569 141.337C-91.5535 134.602 -94.7248 125.721 -94.2733 116.647C-93.8217 107.574 -89.7842 99.0512 -83.049 92.9546C-76.3138 86.858 -67.4325 83.6867 -58.3591 84.1382L108.703 92.4547C109.36 92.4955 109.974 92.7934 110.412 93.2838C110.851 93.7742 111.078 94.4176 111.045 95.0745C111.013 95.7315 110.722 96.3492 110.237 96.7936C109.752 97.238 109.112 97.4733 108.454 97.4487L-58.6105 89.1354C-62.4678 88.9084 -66.3319 89.4478 -69.9797 90.7225C-73.6274 91.9972 -76.9864 93.9819 -79.8628 96.5621C-82.7392 99.1422 -85.0759 102.267 -86.738 105.755C-88.4001 109.243 -89.3546 113.026 -89.5465 116.886C-89.7384 120.745 -89.1637 124.604 -87.8559 128.24C-86.548 131.876 -84.5327 135.217 -81.9265 138.069C-79.3202 140.922 -76.1746 143.23 -72.6713 144.86C-69.168 146.491 -65.3764 147.411 -61.5156 147.567L105.546 155.883C106.208 155.916 106.83 156.21 107.276 156.702C107.721 157.193 107.952 157.842 107.919 158.504L107.916 158.501Z" fill="#FF9100"/>
<path d="M106.384 108.86L-68.4198 100.158C-68.4857 100.156 -68.5503 100.14 -68.61 100.112C-68.6697 100.084 -68.7232 100.044 -68.7676 99.9956C-68.812 99.9469 -68.8463 99.8899 -68.8686 99.8279C-68.8908 99.7659 -68.9006 99.7 -68.8974 99.6342C-68.8942 99.5684 -68.878 99.5039 -68.8497 99.4444C-68.8214 99.3848 -68.7816 99.3314 -68.7327 99.2873C-68.6837 99.2432 -68.6266 99.2092 -68.5644 99.1873C-68.5023 99.1654 -68.4364 99.1559 -68.3706 99.1595L106.433 107.862C106.565 107.869 106.689 107.928 106.778 108.026C106.866 108.124 106.912 108.253 106.906 108.385C106.899 108.517 106.841 108.641 106.743 108.73C106.645 108.819 106.516 108.866 106.384 108.86Z" fill="#CCCCCC"/>
<path d="M105.791 120.845L-69.0127 112.143C-69.0785 112.14 -69.1431 112.124 -69.2028 112.097C-69.2625 112.069 -69.3161 112.029 -69.3605 111.98C-69.4048 111.932 -69.4392 111.875 -69.4615 111.813C-69.4837 111.751 -69.4935 111.685 -69.4903 111.619C-69.4871 111.553 -69.4708 111.489 -69.4425 111.429C-69.4143 111.37 -69.3745 111.316 -69.3256 111.272C-69.2766 111.228 -69.2194 111.194 -69.1573 111.172C-69.0951 111.15 -69.0293 111.141 -68.9635 111.144L105.84 119.852C105.972 119.859 106.095 119.918 106.184 120.016C106.272 120.115 106.318 120.244 106.312 120.376C106.305 120.508 106.247 120.632 106.149 120.721C106.051 120.81 105.922 120.857 105.79 120.851L105.791 120.845Z" fill="#CCCCCC"/>
<path d="M105.191 132.834L-69.6127 124.132C-69.6785 124.129 -69.7431 124.113 -69.8028 124.085C-69.8625 124.057 -69.9161 124.018 -69.9605 123.969C-70.0048 123.92 -70.0391 123.863 -70.0614 123.801C-70.0837 123.739 -70.0935 123.674 -70.0902 123.608C-70.087 123.542 -70.0708 123.477 -70.0425 123.418C-70.0143 123.358 -69.9745 123.305 -69.9256 123.261C-69.8766 123.217 -69.8194 123.183 -69.7573 123.161C-69.6951 123.139 -69.6293 123.129 -69.5635 123.133L105.241 131.835C105.372 131.842 105.496 131.901 105.585 132C105.673 132.098 105.719 132.227 105.713 132.359C105.706 132.491 105.648 132.615 105.55 132.704C105.452 132.793 105.323 132.84 105.191 132.834Z" fill="#CCCCCC"/>
<path d="M104.595 144.82L-70.2092 136.118C-70.275 136.115 -70.3397 136.099 -70.3993 136.072C-70.459 136.044 -70.5126 136.004 -70.557 135.955C-70.6014 135.907 -70.6357 135.85 -70.658 135.788C-70.6803 135.726 -70.6901 135.66 -70.6868 135.594C-70.6836 135.528 -70.6673 135.464 -70.6391 135.404C-70.6108 135.345 -70.5711 135.291 -70.5221 135.247C-70.4732 135.203 -70.416 135.169 -70.3538 135.147C-70.2917 135.125 -70.2259 135.116 -70.1601 135.119L104.643 143.822C104.709 143.825 104.774 143.841 104.833 143.869C104.893 143.897 104.947 143.936 104.991 143.985C105.035 144.033 105.07 144.09 105.092 144.152C105.114 144.214 105.124 144.28 105.121 144.346C105.118 144.412 105.101 144.476 105.073 144.536C105.045 144.596 105.005 144.649 104.956 144.693C104.907 144.737 104.85 144.771 104.788 144.793C104.726 144.815 104.66 144.824 104.594 144.821L104.595 144.82Z" fill="#CCCCCC"/>
</svg>
