<svg width="45" height="30" viewBox="0 0 45 30" fill="none" xmlns="http://www.w3.org/2000/svg">
<path d="M22.5504 29.712C17.7738 29.6808 13.0569 28.6479 8.70439 26.68C8.44526 26.5645 8.22531 26.3762 8.07136 26.1379C7.91742 25.8996 7.83615 25.6217 7.83742 25.338V13.426C7.83795 13.036 7.99309 12.6622 8.26884 12.3864C8.5446 12.1107 8.91842 11.9555 9.30839 11.955H35.7914C36.1814 11.9555 36.5552 12.1107 36.831 12.3864C37.1067 12.6622 37.2619 13.036 37.2624 13.426V25.333C37.2637 25.6167 37.1824 25.8946 37.0284 26.1329C36.8745 26.3712 36.6545 26.5596 36.3954 26.675C32.0436 28.6445 27.327 29.6791 22.5504 29.712Z" fill="#FF9100"/>
<path d="M22.5463 20.061C22.3499 20.0612 22.1554 20.0221 21.9743 19.946L0.974337 11.086C0.703455 10.9718 0.472993 10.7791 0.312686 10.5327C0.152378 10.2863 0.0695725 9.9975 0.0749536 9.70358C0.0803347 9.40967 0.173648 9.1241 0.342867 8.88373C0.512087 8.64336 0.749475 8.45919 1.02436 8.355L22.0244 0.388002C22.3624 0.258361 22.7363 0.258361 23.0743 0.388002L43.7933 8.355C44.0667 8.46002 44.3025 8.64423 44.4705 8.88405C44.6385 9.12387 44.7311 9.40838 44.7365 9.70116C44.7419 9.99393 44.6598 10.2816 44.5006 10.5275C44.3415 10.7733 44.1127 10.966 43.8434 11.081L23.1243 19.941C22.9417 20.0196 22.7451 20.0604 22.5463 20.061Z" fill="#FF9100"/>
<path d="M10.2904 27.485C11.374 27.485 12.2524 26.6066 12.2524 25.523C12.2524 24.4394 11.374 23.561 10.2904 23.561C9.20679 23.561 8.32837 24.4394 8.32837 25.523C8.32837 26.6066 9.20679 27.485 10.2904 27.485Z" fill="white"/>
<path opacity="0.2" d="M43.9163 9.821L23.1963 18.681C23.0347 18.7497 22.8609 18.785 22.6853 18.785C22.5097 18.785 22.3359 18.7497 22.1743 18.681L1.17431 9.821C0.910633 9.71224 0.690716 9.51871 0.549311 9.271C0.456805 9.43154 0.39948 9.60992 0.381159 9.7943C0.362837 9.97867 0.383946 10.1648 0.443049 10.3404C0.502151 10.516 0.597919 10.6771 0.723993 10.8129C0.850068 10.9486 1.00356 11.0561 1.17431 11.128L22.1743 19.988C22.3359 20.0566 22.5097 20.0919 22.6853 20.0919C22.8609 20.0919 23.0347 20.0566 23.1963 19.988L43.9163 11.128C44.0863 11.0554 44.2389 10.9477 44.3642 10.8118C44.4894 10.6759 44.5844 10.515 44.6429 10.3397C44.7014 10.1644 44.7221 9.97867 44.7035 9.7948C44.685 9.61093 44.6276 9.43308 44.5353 9.27299C44.3949 9.51853 44.1773 9.71082 43.9163 9.81999V9.821Z" fill="black"/>
<path d="M10.4543 25.515C10.541 25.515 10.6242 25.4805 10.6855 25.4192C10.7469 25.3579 10.7813 25.2747 10.7813 25.188V14.248L21.5643 10.32C21.651 10.3213 21.7347 10.2881 21.797 10.2278C21.8593 10.1674 21.895 10.0847 21.8963 9.998C21.8976 9.91128 21.8645 9.82757 21.8041 9.7653C21.7437 9.70304 21.661 9.66733 21.5743 9.666L10.7913 13.594C10.7045 13.5919 10.6181 13.6075 10.5375 13.6398C10.4569 13.6721 10.3837 13.7205 10.3223 13.782C10.2594 13.8423 10.2093 13.9146 10.1749 13.9947C10.1405 14.0747 10.1227 14.1609 10.1223 14.248V25.188C10.1223 25.2314 10.1309 25.2743 10.1477 25.3143C10.1644 25.3543 10.189 25.3906 10.2198 25.421C10.2507 25.4514 10.2874 25.4754 10.3276 25.4915C10.3679 25.5077 10.411 25.5157 10.4543 25.515Z" fill="white"/>
</svg>
