<svg width="32" height="31" viewBox="0 0 32 31" fill="none" xmlns="http://www.w3.org/2000/svg">
<path d="M16.053 0.0649414C13.0254 0.0649414 10.0658 0.962711 7.54836 2.64478C5.03097 4.32684 3.06887 6.71766 1.91024 9.51483C0.751613 12.312 0.448483 15.3899 1.03915 18.3594C1.62981 21.3288 3.08774 24.0565 5.2286 26.1973C7.36946 28.3382 10.0971 29.7961 13.0666 30.3868C16.036 30.9774 19.114 30.6743 21.9112 29.5157C24.7083 28.3571 27.0991 26.395 28.7812 23.8776C30.4632 21.3602 31.361 18.4006 31.361 15.3729C31.3608 11.3131 29.7478 7.41958 26.8771 4.54883C24.0063 1.67808 20.1129 0.0652066 16.053 0.0649414ZM11.605 23.2059H7.87704V11.9899H11.605V23.2059ZM9.74502 10.4579H9.72103C9.15717 10.4548 8.61757 10.2282 8.22054 9.82776C7.82351 9.42736 7.60146 8.88583 7.60305 8.32196C7.60464 7.75809 7.82975 7.21786 8.22903 6.8197C8.6283 6.42155 9.16912 6.198 9.73299 6.198C10.2969 6.198 10.8377 6.42155 11.237 6.8197C11.6363 7.21786 11.8614 7.75809 11.863 8.32196C11.8646 8.88583 11.6425 9.42736 11.2455 9.82776C10.8485 10.2282 10.3089 10.4548 9.74502 10.4579ZM25.045 23.2059H21.317V17.2059C21.317 15.6979 20.777 14.6689 19.428 14.6689C19.0075 14.6713 18.5981 14.8035 18.2556 15.0475C17.9132 15.2915 17.6546 15.6353 17.515 16.0319C17.4193 16.3253 17.3776 16.6337 17.392 16.942V23.205H13.664C13.664 23.205 13.713 13.041 13.664 11.989H17.392V13.577C17.7294 12.9908 18.221 12.5083 18.8134 12.182C19.4058 11.8557 20.0763 11.6979 20.752 11.726C23.205 11.726 25.044 13.3259 25.044 16.7739L25.045 23.2059Z" fill="white"/>
</svg>
