<svg width="61" height="50" viewBox="0 0 61 50" fill="none" xmlns="http://www.w3.org/2000/svg">
<g opacity="0.45">
<path opacity="0.45" d="M41.7901 27.445C43.2078 27.8587 44.6763 28.0721 46.1531 28.079C48.0332 28.0849 49.8944 27.704 51.6211 26.96C50.2481 31.994 46.9441 40.677 40.3661 41.654C40.0676 41.6988 39.7885 41.8289 39.5623 42.0287C39.3361 42.2284 39.1724 42.4894 39.0911 42.78L37.6541 47.921C37.5937 48.1359 37.5801 48.3613 37.6143 48.5818C37.6484 48.8024 37.7296 49.0131 37.8521 49.1996C37.9747 49.3862 38.1359 49.5443 38.3248 49.6632C38.5137 49.7821 38.7259 49.8591 38.9471 49.889C39.4346 49.9559 39.9261 49.9893 40.4181 49.989C48.3181 49.989 56.1341 41.748 59.4331 29.947C61.3701 23.024 61.9331 12.613 57.1691 6.06301C54.4961 2.39502 50.6031 0.440002 45.5901 0.242001H45.5291C42.183 0.245762 38.9512 1.46001 36.4305 3.66052C33.9098 5.86103 32.2703 8.8992 31.8147 12.2141C31.3591 15.5291 32.1183 18.8969 33.952 21.6958C35.7857 24.4947 38.5701 26.5358 41.7911 27.442L41.7901 27.445Z" fill="#D67E09"/>
<path opacity="0.45" d="M3.07209 20.9C4.87782 24.0953 7.87292 26.4478 11.4051 27.445C12.8218 27.8585 14.2893 28.0719 15.7651 28.079C17.6462 28.085 19.5084 27.7041 21.2361 26.96C19.8611 31.994 16.5591 40.677 9.98109 41.654C9.68248 41.6984 9.40317 41.8284 9.17689 42.0282C8.95061 42.2281 8.78704 42.4892 8.70606 42.78L7.27009 47.921C7.2097 48.1357 7.196 48.3608 7.22999 48.5812C7.26398 48.8016 7.34486 49.0122 7.46711 49.1987C7.58936 49.3852 7.75019 49.5433 7.93873 49.6624C8.12727 49.7815 8.33913 49.8587 8.56007 49.889C9.04754 49.9559 9.53903 49.9894 10.0311 49.989C17.9311 49.989 25.7471 41.748 29.0481 29.947C30.9861 23.024 31.5531 12.613 26.7811 6.06301C24.1111 2.39502 20.2151 0.437 15.2021 0.242001H15.1411C12.7218 0.243633 10.3451 0.878483 8.24726 2.08343C6.14942 3.28838 4.40351 5.02145 3.18311 7.11035C1.96272 9.19924 1.31038 11.5712 1.2909 13.9904C1.27142 16.4096 1.8855 18.7917 3.07209 20.9Z" fill="#D67E09"/>
</g>
</svg>
