<svg width="31" height="31" viewBox="0 0 31 31" fill="none" xmlns="http://www.w3.org/2000/svg">
<path d="M17.776 30.481C17.648 30.502 17.52 30.521 17.392 30.538C17.52 30.521 17.649 30.501 17.776 30.481Z" fill="white"/>
<path d="M18.082 30.429L17.899 30.461L18.082 30.429Z" fill="white"/>
<path d="M17.05 30.5811C16.901 30.5981 16.75 30.6131 16.6 30.6251C16.751 30.6131 16.9 30.5981 17.05 30.5811Z" fill="white"/>
<path d="M17.344 30.5449L17.128 30.5719L17.344 30.5449Z" fill="white"/>
<path d="M18.499 30.3459L18.338 30.3799L18.499 30.3459Z" fill="white"/>
<path d="M19.533 30.0889L19.403 30.1249L19.533 30.0889Z" fill="white"/>
<path d="M19.22 30.1709L19.078 30.2079L19.22 30.1709Z" fill="white"/>
<path d="M18.811 30.2769L18.66 30.3109L18.811 30.2769Z" fill="white"/>
<path d="M16.595 30.626L16.353 30.644L16.595 30.626Z" fill="white"/>
<path d="M30.615 15.3729C30.615 12.3453 29.7172 9.3857 28.0352 6.86831C26.3531 4.35092 23.9623 2.38881 21.1651 1.23019C18.368 0.0715597 15.29 -0.23157 12.3206 0.359092C9.35112 0.949755 6.62349 2.40768 4.48263 4.54855C2.34177 6.68941 0.883837 9.41704 0.293174 12.3865C-0.297488 15.356 0.0056417 18.4339 1.16427 21.2311C2.32289 24.0283 4.28494 26.419 6.80233 28.1011C9.31972 29.7832 12.2794 30.681 15.307 30.681C15.397 30.681 15.486 30.681 15.576 30.681V18.765H12.287V14.932H15.576V12.112C15.576 8.84096 17.576 7.06094 20.49 7.06094C21.475 7.05737 22.4595 7.10778 23.439 7.21194V10.63H21.427C19.839 10.63 19.527 11.385 19.527 12.492V14.9329H23.327L22.832 18.766H19.532V30.094C22.7256 29.1753 25.5338 27.2429 27.5329 24.5883C29.5319 21.9338 30.6134 18.701 30.614 15.378L30.615 15.3729Z" fill="white"/>
<path d="M16.319 30.646C16.1597 30.656 15.9997 30.664 15.839 30.67C15.9997 30.6646 16.1597 30.6567 16.319 30.646Z" fill="white"/>
<path d="M15.831 30.6699L15.577 30.676L15.831 30.6699Z" fill="white"/>
</svg>
