<svg width="31" height="32" viewBox="0 0 31 32" fill="none" xmlns="http://www.w3.org/2000/svg">
<path d="M18.407 15.9391C18.407 16.5214 18.2342 17.0907 17.9107 17.5748C17.5872 18.059 17.1273 18.4363 16.5893 18.6591C16.0513 18.8819 15.4593 18.9402 14.8882 18.8265C14.3171 18.7128 13.7925 18.4323 13.3808 18.0205C12.9692 17.6087 12.6888 17.084 12.5754 16.5128C12.4619 15.9417 12.5204 15.3497 12.7433 14.8118C12.9663 14.2739 13.3438 13.8142 13.828 13.4908C14.3123 13.1674 14.8816 12.9949 15.4639 12.9951C16.2447 12.9951 16.9935 13.3053 17.5456 13.8574C18.0977 14.4095 18.4079 15.1583 18.4079 15.9391H18.407Z" fill="white"/>
<path d="M22.3479 10.7311C22.201 10.3502 21.9761 10.0044 21.6874 9.7157C21.3988 9.42704 21.0528 9.20201 20.672 9.05511C20.1465 8.86192 19.5918 8.76045 19.032 8.75513C18.101 8.71313 17.821 8.70312 15.464 8.70312C13.107 8.70312 12.827 8.71212 11.895 8.75412C11.3352 8.75952 10.7804 8.86099 10.255 9.05411C9.87413 9.20105 9.52824 9.4261 9.23959 9.71475C8.95094 10.0034 8.72589 10.3493 8.57895 10.7301C8.38575 11.2556 8.28429 11.8103 8.27896 12.3701C8.23696 13.3011 8.22696 13.5801 8.22696 15.9391C8.22696 18.2981 8.23596 18.5761 8.27896 19.5071C8.28425 20.0669 8.38571 20.6217 8.57895 21.1471C8.72584 21.528 8.95088 21.8739 9.23953 22.1626C9.52819 22.4512 9.8741 22.6762 10.255 22.8231C10.7804 23.0164 11.3352 23.1179 11.895 23.1231C12.826 23.1651 13.105 23.1741 15.463 23.1741C17.821 23.1741 18.101 23.1651 19.032 23.1231C19.5918 23.1179 20.1466 23.0164 20.672 22.8231C21.0528 22.6762 21.3988 22.4512 21.6874 22.1626C21.9761 21.8739 22.201 21.528 22.3479 21.1471C22.541 20.6217 22.6426 20.0669 22.648 19.5071C22.69 18.5761 22.6989 18.2961 22.6989 15.9391C22.6989 13.5821 22.69 13.3021 22.648 12.3701C22.6428 11.8103 22.5413 11.2555 22.3479 10.7301V10.7311ZM15.464 20.4741C14.567 20.4741 13.6902 20.2082 12.9444 19.7098C12.1987 19.2115 11.6174 18.5033 11.2741 17.6746C10.9309 16.8459 10.8411 15.9341 11.0161 15.0544C11.1911 14.1747 11.623 13.3666 12.2572 12.7324C12.8915 12.0982 13.6996 11.6663 14.5793 11.4913C15.459 11.3163 16.3708 11.4061 17.1994 11.7493C18.0281 12.0926 18.7363 12.6738 19.2346 13.4196C19.733 14.1654 19.9989 15.0422 19.9989 15.9391C19.9989 17.1419 19.5212 18.2954 18.6707 19.1458C17.8202 19.9963 16.6667 20.4741 15.464 20.4741ZM20.1779 12.2851C19.9683 12.2851 19.7634 12.223 19.5891 12.1065C19.4148 11.99 19.2789 11.8245 19.1986 11.6308C19.1184 11.4371 19.0974 11.2239 19.1383 11.0183C19.1792 10.8127 19.2802 10.6238 19.4284 10.4756C19.5767 10.3273 19.7655 10.2264 19.9712 10.1855C20.1768 10.1446 20.3899 10.1656 20.5836 10.2458C20.7773 10.326 20.9428 10.4619 21.0593 10.6362C21.1758 10.8105 21.2379 11.0155 21.2379 11.2251C21.2379 11.5063 21.1263 11.7759 20.9275 11.9746C20.7287 12.1734 20.4591 12.2851 20.1779 12.2851Z" fill="white"/>
<path d="M15.464 0.63208C12.4367 0.63208 9.47746 1.52976 6.9604 3.21161C4.44334 4.89345 2.48154 7.28393 1.32307 10.0807C0.164593 12.8775 -0.13852 15.9551 0.452066 18.9241C1.04265 21.8932 2.50042 24.6205 4.641 26.7611C6.78158 28.9016 9.50884 30.3594 12.4779 30.95C15.447 31.5406 18.5245 31.2375 21.3213 30.079C24.1181 28.9205 26.5086 26.9587 28.1904 24.4416C29.8723 21.9246 30.77 18.9653 30.77 15.9381C30.7694 11.8788 29.1567 7.98601 26.2864 5.11569C23.416 2.24538 19.5232 0.63261 15.464 0.63208ZM24.2 19.5621C24.1856 20.2914 24.0477 21.0129 23.792 21.6961C23.5662 22.2798 23.2209 22.8099 22.7784 23.2525C22.3358 23.695 21.8057 24.0403 21.222 24.2661C20.5391 24.5216 19.8179 24.6596 19.089 24.6741C18.152 24.7171 17.852 24.7271 15.465 24.7271C13.078 24.7271 12.779 24.7171 11.841 24.6741C11.112 24.6596 10.3908 24.5216 9.70796 24.2661C9.12423 24.0403 8.59412 23.695 8.15156 23.2525C7.709 22.8099 7.36378 22.2798 7.13798 21.6961C6.88236 21.0133 6.74439 20.292 6.72996 19.5631C6.68696 18.6261 6.67698 18.3261 6.67698 15.9391C6.67698 13.5521 6.68696 13.2531 6.72996 12.3151C6.74429 11.5858 6.88227 10.8642 7.13798 10.1811C7.36421 9.59745 7.70972 9.06743 8.15241 8.62491C8.59511 8.18238 9.12524 7.83709 9.70896 7.61108C10.3921 7.35545 11.1137 7.21749 11.843 7.20308C12.78 7.16008 13.08 7.15009 15.467 7.15009C17.854 7.15009 18.153 7.16008 19.091 7.20308C19.8203 7.21753 20.5418 7.35549 21.225 7.61108C21.8086 7.83732 22.3386 8.18282 22.7811 8.62552C23.2237 9.06821 23.569 9.59836 23.795 10.1821C24.051 10.8652 24.1893 11.5867 24.204 12.3161C24.247 13.2531 24.257 13.5531 24.257 15.9401C24.257 18.3271 24.247 18.6261 24.204 19.5641L24.2 19.5621Z" fill="white"/>
</svg>
