<svg width="182" height="35" viewBox="0 0 182 35" fill="none" xmlns="http://www.w3.org/2000/svg">
<path d="M58.0811 12.0229C57.5195 12.5845 57.1086 13.0483 56.8481 13.4146C56.5959 13.7726 56.3232 14.2894 56.0303 14.9648C55.8105 15.4531 55.6519 15.9699 55.5542 16.5151C55.4321 16.9953 55.3711 17.6138 55.3711 18.3706C55.3711 19.4367 55.4728 20.3278 55.6763 21.0439C55.8797 21.752 56.1808 22.2891 56.5796 22.6553C56.9784 23.0133 57.4585 23.1924 58.02 23.1924C58.4757 23.1924 58.9396 23.0256 59.4116 22.6919C59.8918 22.3582 60.3231 21.9229 60.7056 21.3857C61.0962 20.8405 61.4095 20.2342 61.6455 19.5669C61.8815 18.8996 61.9995 18.2567 61.9995 17.6382C61.9995 16.5233 61.617 15.3595 60.8521 14.147C60.5672 13.6587 60.4248 13.325 60.4248 13.146C60.4248 12.8123 60.6079 12.4787 60.9741 12.145C61.3892 11.7463 61.8652 11.3923 62.4023 11.083C62.9395 10.7738 63.3626 10.6191 63.6719 10.6191C63.8509 10.6191 64.0381 10.6639 64.2334 10.7534C64.4368 10.8348 64.5915 10.9406 64.6973 11.0708C64.9577 11.3394 65.1733 11.8358 65.3442 12.5601C65.5151 13.2762 65.6006 14.0371 65.6006 14.8428C65.6006 16.7633 65.2059 18.5374 64.4165 20.165C63.6353 21.7845 62.5692 23.0703 61.2183 24.0225C59.8755 24.9665 58.4188 25.4385 56.8481 25.4385C55.9448 25.4385 55.0496 25.2716 54.1626 24.938C53.2756 24.6043 52.5553 24.1567 52.002 23.5952C51.0661 22.6593 50.5981 21.4346 50.5981 19.9209C50.5981 19.042 50.769 18.1102 51.1108 17.1255C51.4526 16.1408 51.9206 15.1846 52.5146 14.2568C53.1169 13.321 53.8086 12.4665 54.5898 11.6934C55.3792 10.9202 56.189 10.3099 57.019 9.8623C57.7759 9.4554 58.5897 9.12988 59.4604 8.88574C60.3312 8.6416 61.0962 8.51953 61.7554 8.51953C62.6831 8.51953 63.147 8.66195 63.147 8.94678C63.147 9.06071 63.0493 9.23568 62.854 9.47168C62.4959 9.80534 62.1826 10.0413 61.9141 10.1797C61.6536 10.318 61.2223 10.4727 60.6201 10.6436C59.9691 10.8389 59.4971 11.0179 59.2041 11.1807C58.9111 11.3353 58.5368 11.616 58.0811 12.0229ZM71.7407 18.8467L72.4731 17.9922C73.2137 17.1702 73.7996 16.5599 74.231 16.1611C74.6704 15.7542 75.061 15.4613 75.4028 15.2822C75.7528 15.1032 76.1068 15.0137 76.4648 15.0137C77.0426 15.0137 77.4495 15.1683 77.6855 15.4775C77.9215 15.7868 78.0396 16.3239 78.0396 17.0889C78.0396 17.4062 78.007 17.8742 77.9419 18.4927C77.8442 19.3146 77.7954 20.0877 77.7954 20.812C77.7954 21.6258 77.8361 22.285 77.9175 22.7896C77.9744 23.0988 78.0599 23.408 78.1738 23.7173C78.2552 24.0103 78.2959 24.2096 78.2959 24.3154C78.2959 24.4456 78.2471 24.5474 78.1494 24.6206C77.8971 24.8403 77.5635 25.0316 77.1484 25.1943C76.7334 25.3571 76.3835 25.4385 76.0986 25.4385C75.6348 25.4385 75.2116 25.2798 74.8291 24.9624C74.4548 24.645 74.1618 24.2056 73.9502 23.644C73.7467 23.0825 73.645 22.4478 73.645 21.7397C73.645 21.2677 73.6938 20.7103 73.7915 20.0674L73.7427 20.0186C73.3927 20.4092 73.1079 20.7184 72.8882 20.9463C72.6766 21.1742 72.4772 21.3898 72.29 21.5933C71.3786 22.6349 70.6055 23.5749 69.9707 24.4131C69.7266 24.7386 69.5028 25.0234 69.2993 25.2676C68.9982 25.5687 68.6564 25.7192 68.2739 25.7192C67.7531 25.7192 67.3299 25.5239 67.0044 25.1333C66.6789 24.7427 66.5161 24.2381 66.5161 23.6196C66.5161 23.2371 66.5609 22.7692 66.6504 22.2158C66.7399 21.6624 66.8579 21.0724 67.0044 20.4458C67.159 19.811 67.3381 19.16 67.5415 18.4927C67.7531 17.8254 67.981 17.1906 68.2251 16.5884C68.5994 15.5874 69.0552 14.8062 69.5923 14.2446C69.9585 13.8784 70.402 13.6953 70.9229 13.6953C71.7692 13.6953 72.1924 14.2446 72.1924 15.3433C72.1924 16.1489 72.0256 17.3005 71.6919 18.7979L71.7407 18.8467ZM85.8398 16.1611C86.1654 15.2415 86.438 14.2812 86.6577 13.2803C86.8774 12.2712 86.9873 11.498 86.9873 10.9609C86.9873 10.8145 86.9466 10.7412 86.8652 10.7412C86.735 10.7412 86.5072 11.0342 86.1816 11.6201C85.8561 12.1979 85.5835 12.7879 85.3638 13.3901C84.8918 14.7166 84.5256 15.8193 84.2651 16.6982C84.0129 17.569 83.8379 18.3014 83.7402 18.8955C83.6426 19.4896 83.5938 20.0959 83.5938 20.7144C83.5938 21.2433 83.6507 21.6299 83.7646 21.874C83.8867 22.1182 84.078 22.2402 84.3384 22.2402C84.786 22.2402 85.2865 22.0449 85.8398 21.6543C86.3932 21.2555 86.8937 20.7347 87.3413 20.0918C87.6912 19.6117 87.9639 19.3716 88.1592 19.3716C88.4115 19.3716 88.5376 19.571 88.5376 19.9697C88.5376 20.8405 88.265 21.6909 87.7197 22.521C87.1745 23.3511 86.4705 24.0265 85.6079 24.5474C84.7534 25.0601 83.8786 25.3164 82.9834 25.3164C81.8848 25.3164 80.9896 24.9705 80.2979 24.2788C79.6061 23.5871 79.2603 22.6838 79.2603 21.5688C79.2603 20.6574 79.4556 19.5913 79.8462 18.3706C80.2368 17.1418 80.7576 15.9089 81.4087 14.6719C82.0679 13.4268 82.7881 12.2996 83.5693 11.2905C84.3506 10.2814 85.1237 9.5083 85.8887 8.97119C86.3607 8.62126 86.8856 8.44629 87.4634 8.44629C87.9028 8.44629 88.3016 8.58464 88.6597 8.86133C89.0177 9.12988 89.2944 9.5083 89.4897 9.99658C89.6851 10.4849 89.7827 11.026 89.7827 11.6201C89.7827 12.8978 89.5304 14.147 89.0259 15.3677C88.5295 16.5884 87.8337 17.6463 86.9385 18.5415C86.5153 18.9728 86.1084 19.3105 85.7178 19.5547C85.3271 19.7988 84.9854 19.9209 84.6924 19.9209C84.4076 19.9209 84.2651 19.811 84.2651 19.5913C84.2651 19.4692 84.3709 19.2373 84.5825 18.8955C84.8674 18.4479 85.201 17.7725 85.5835 16.8691C85.616 16.7796 85.6527 16.686 85.6934 16.5884C85.734 16.4826 85.7829 16.3402 85.8398 16.1611ZM92.4927 25.4141C92.1265 25.3896 91.7928 25.2228 91.4917 24.9136C91.1906 24.5881 90.9749 24.2381 90.8447 23.8638C90.7227 23.4813 90.6616 22.9889 90.6616 22.3867C90.6616 21.0439 90.9098 19.5303 91.4062 17.8457C91.9108 16.153 92.4805 14.9282 93.1152 14.1714C93.3675 13.854 93.7174 13.6953 94.165 13.6953C94.637 13.6953 95.0155 13.911 95.3003 14.3423C95.5933 14.7736 95.7397 15.3392 95.7397 16.0391C95.7397 17.0726 95.5892 18.2852 95.2881 19.6768C94.9951 21.0602 94.5801 22.5007 94.043 23.998C93.8314 24.6003 93.571 25.0072 93.2617 25.2188C93.0501 25.349 92.8019 25.4141 92.5171 25.4141H92.4927ZM93.9575 13.146C93.1925 13.1216 92.8101 12.6618 92.8101 11.7666C92.8101 11.319 92.9199 10.8022 93.1396 10.2163C93.3675 9.62223 93.6239 9.18278 93.9087 8.89795C94.0552 8.74333 94.2017 8.63346 94.3481 8.56836C94.5028 8.50326 94.6981 8.4707 94.9341 8.4707C95.341 8.4707 95.638 8.57243 95.8252 8.77588C96.0205 8.97119 96.1182 9.30078 96.1182 9.76465C96.1182 10.3424 96.0164 10.8918 95.813 11.4126C95.6177 11.9253 95.3532 12.3444 95.0195 12.6699C94.6859 12.9873 94.3441 13.146 93.9941 13.146H93.9575ZM102.185 18.8467L102.917 17.9922C103.658 17.1702 104.244 16.5599 104.675 16.1611C105.115 15.7542 105.505 15.4613 105.847 15.2822C106.197 15.1032 106.551 15.0137 106.909 15.0137C107.487 15.0137 107.894 15.1683 108.13 15.4775C108.366 15.7868 108.484 16.3239 108.484 17.0889C108.484 17.4062 108.451 17.8742 108.386 18.4927C108.289 19.3146 108.24 20.0877 108.24 20.812C108.24 21.6258 108.28 22.285 108.362 22.7896C108.419 23.0988 108.504 23.408 108.618 23.7173C108.7 24.0103 108.74 24.2096 108.74 24.3154C108.74 24.4456 108.691 24.5474 108.594 24.6206C108.341 24.8403 108.008 25.0316 107.593 25.1943C107.178 25.3571 106.828 25.4385 106.543 25.4385C106.079 25.4385 105.656 25.2798 105.273 24.9624C104.899 24.645 104.606 24.2056 104.395 23.644C104.191 23.0825 104.089 22.4478 104.089 21.7397C104.089 21.2677 104.138 20.7103 104.236 20.0674L104.187 20.0186C103.837 20.4092 103.552 20.7184 103.333 20.9463C103.121 21.1742 102.922 21.3898 102.734 21.5933C101.823 22.6349 101.05 23.5749 100.415 24.4131C100.171 24.7386 99.9471 25.0234 99.7437 25.2676C99.4425 25.5687 99.1007 25.7192 98.7183 25.7192C98.1974 25.7192 97.7743 25.5239 97.4487 25.1333C97.1232 24.7427 96.9604 24.2381 96.9604 23.6196C96.9604 23.2371 97.0052 22.7692 97.0947 22.2158C97.1842 21.6624 97.3022 21.0724 97.4487 20.4458C97.6034 19.811 97.7824 19.16 97.9858 18.4927C98.1974 17.8254 98.4253 17.1906 98.6694 16.5884C99.0438 15.5874 99.4995 14.8062 100.037 14.2446C100.403 13.8784 100.846 13.6953 101.367 13.6953C102.214 13.6953 102.637 14.2446 102.637 15.3433C102.637 16.1489 102.47 17.3005 102.136 18.7979L102.185 18.8467ZM113.904 21.4956C114.278 21.2433 114.563 20.991 114.758 20.7388C115.19 20.2098 115.523 19.6035 115.759 18.9199C115.946 18.4723 116.093 17.9718 116.199 17.4185C116.305 16.8651 116.357 16.3483 116.357 15.8682C116.357 15.4206 116.264 15.1968 116.077 15.1968C115.816 15.1968 115.417 15.7705 114.88 16.918C114.563 17.6097 114.303 18.3014 114.099 18.9932C113.904 19.6768 113.806 20.2668 113.806 20.7632C113.806 20.9341 113.839 21.1782 113.904 21.4956ZM113.928 21.8862C114.018 22.3745 114.335 22.6187 114.88 22.6187C115.491 22.6187 116.284 22.2606 117.261 21.5444C117.83 21.1294 118.213 20.9219 118.408 20.9219C118.652 20.9219 118.88 20.987 119.092 21.1172C119.303 21.2474 119.409 21.3817 119.409 21.52C119.409 21.6665 119.291 21.8577 119.055 22.0938C118.624 22.5251 118.127 22.9482 117.566 23.3633C117.004 23.7702 116.463 24.112 115.942 24.3887C115.422 24.6572 114.901 24.8729 114.38 25.0356C113.859 25.1903 113.395 25.2676 112.988 25.2676C111.971 25.2676 111.157 24.9787 110.547 24.4009C109.937 23.8149 109.631 23.0378 109.631 22.0693C109.631 21.3288 109.79 20.4946 110.107 19.5669C110.433 18.631 110.868 17.7562 111.414 16.9424C112.056 15.9902 112.846 15.1968 113.782 14.562C114.937 13.797 116.044 13.4146 117.102 13.4146C117.867 13.4146 118.465 13.6587 118.896 14.147C119.336 14.6271 119.556 15.2904 119.556 16.1367C119.556 16.7959 119.381 17.4836 119.031 18.1997C118.689 18.9159 118.18 19.6035 117.505 20.2627C116.951 20.8161 116.406 21.2474 115.869 21.5566C115.34 21.8659 114.876 22.0205 114.478 22.0205C114.299 22.0205 114.115 21.9757 113.928 21.8862ZM133.997 14.8184L133.594 15.7949C133.065 17.0482 132.572 18.2974 132.117 19.5425C131.897 20.1447 131.563 21.1945 131.116 22.6919C131.791 22.6349 132.699 22.4925 133.838 22.2646C134.57 22.1182 135.014 22.0449 135.168 22.0449C135.453 22.0449 135.596 22.1589 135.596 22.3867C135.596 22.6553 135.437 23.0337 135.12 23.522C134.81 24.0021 134.46 24.4172 134.07 24.7671C133.801 25.0194 133.403 25.1943 132.874 25.292C132.345 25.3896 131.519 25.4385 130.396 25.4385C129.346 25.4385 128.536 25.4059 127.966 25.3408C127.958 25.3408 127.824 25.3001 127.563 25.2188C127.1 25.0234 126.868 24.6165 126.868 23.998C126.868 23.5505 126.994 22.7326 127.246 21.5444C127.507 20.3563 127.881 18.8792 128.369 17.1133C129.476 13.1745 130.31 10.7412 130.872 9.81348C131.051 9.49609 131.274 9.25195 131.543 9.08105C131.82 8.90202 132.194 8.76367 132.666 8.66602C133.122 8.56836 133.647 8.51953 134.241 8.51953C134.794 8.51953 135.181 8.59277 135.4 8.73926C135.628 8.8776 135.742 9.12174 135.742 9.47168C135.742 9.80534 135.596 10.432 135.303 11.3516C135.01 12.263 134.574 13.4186 133.997 14.8184ZM140.833 21.4956C141.207 21.2433 141.492 20.991 141.687 20.7388C142.118 20.2098 142.452 19.6035 142.688 18.9199C142.875 18.4723 143.022 17.9718 143.127 17.4185C143.233 16.8651 143.286 16.3483 143.286 15.8682C143.286 15.4206 143.193 15.1968 143.005 15.1968C142.745 15.1968 142.346 15.7705 141.809 16.918C141.492 17.6097 141.231 18.3014 141.028 18.9932C140.833 19.6768 140.735 20.2668 140.735 20.7632C140.735 20.9341 140.767 21.1782 140.833 21.4956ZM140.857 21.8862C140.946 22.3745 141.264 22.6187 141.809 22.6187C142.419 22.6187 143.213 22.2606 144.189 21.5444C144.759 21.1294 145.142 20.9219 145.337 20.9219C145.581 20.9219 145.809 20.987 146.021 21.1172C146.232 21.2474 146.338 21.3817 146.338 21.52C146.338 21.6665 146.22 21.8577 145.984 22.0938C145.553 22.5251 145.056 22.9482 144.495 23.3633C143.933 23.7702 143.392 24.112 142.871 24.3887C142.35 24.6572 141.829 24.8729 141.309 25.0356C140.788 25.1903 140.324 25.2676 139.917 25.2676C138.9 25.2676 138.086 24.9787 137.476 24.4009C136.865 23.8149 136.56 23.0378 136.56 22.0693C136.56 21.3288 136.719 20.4946 137.036 19.5669C137.362 18.631 137.797 17.7562 138.342 16.9424C138.985 15.9902 139.775 15.1968 140.71 14.562C141.866 13.797 142.973 13.4146 144.031 13.4146C144.796 13.4146 145.394 13.6587 145.825 14.147C146.265 14.6271 146.484 15.2904 146.484 16.1367C146.484 16.7959 146.309 17.4836 145.959 18.1997C145.618 18.9159 145.109 19.6035 144.434 20.2627C143.88 20.8161 143.335 21.2474 142.798 21.5566C142.269 21.8659 141.805 22.0205 141.406 22.0205C141.227 22.0205 141.044 21.9757 140.857 21.8862ZM156.384 18.9443L156.152 19.0176C155.566 19.1803 155.143 19.2617 154.883 19.2617C154.565 19.2617 154.407 19.1803 154.407 19.0176C154.407 18.9606 154.472 18.8101 154.602 18.5659C155.058 17.8742 155.286 17.2231 155.286 16.6128C155.286 16.2629 155.225 15.9455 155.103 15.6606C154.98 15.3677 154.846 15.2212 154.7 15.2212C154.569 15.2212 154.37 15.3595 154.102 15.6362C153.345 16.4582 152.743 17.3005 152.295 18.1631C151.855 19.0257 151.636 19.7948 151.636 20.4702C151.636 20.9178 151.725 21.2881 151.904 21.5811C152.091 21.874 152.323 22.0205 152.6 22.0205C152.836 22.0205 153.276 21.7682 153.918 21.2637C154.569 20.7591 155.298 20.0918 156.104 19.2617L156.433 18.9932L156.384 18.9443ZM155.652 21.7397V21.7886L155.603 21.7397C154.846 22.6268 154.15 23.3551 153.516 23.9248C152.889 24.4863 152.307 24.9095 151.77 25.1943C151.241 25.4792 150.753 25.6216 150.305 25.6216C149.394 25.6216 148.641 25.3164 148.047 24.7061C147.453 24.0957 147.156 23.3226 147.156 22.3867C147.156 21.8089 147.302 21.1253 147.595 20.3359C147.888 19.5465 148.291 18.7734 148.804 18.0166C149.658 16.7796 150.732 15.7298 152.026 14.8672C153.361 13.9801 154.647 13.5366 155.884 13.5366C156.925 13.5366 157.78 13.7523 158.447 14.1836C159.123 14.6068 159.46 15.1439 159.46 15.7949C159.46 16.2751 159.294 16.7837 158.96 17.3208C159.399 17.3208 159.676 17.3696 159.79 17.4673C159.904 17.5568 159.961 17.7725 159.961 18.1143C159.961 18.0817 159.941 18.2485 159.9 18.6147C159.851 19.4204 159.827 20.1732 159.827 20.873C159.827 21.2393 159.831 21.516 159.839 21.7031C159.847 21.8903 159.863 22.106 159.888 22.3501C159.912 22.5942 159.937 22.7896 159.961 22.936C160.026 23.3185 160.132 23.6969 160.278 24.0713C159.79 24.5514 159.322 24.9054 158.875 25.1333C158.427 25.353 157.971 25.4629 157.507 25.4629C156.254 25.4629 155.627 24.4131 155.627 22.3135C155.627 22.0693 155.636 21.8781 155.652 21.7397ZM165.222 21.5688L165.173 21.813C165.173 21.9513 165.157 22.1507 165.125 22.4111C165.092 22.8099 165.047 23.1354 164.99 23.3877C164.933 23.64 164.848 23.8516 164.734 24.0225C164.62 24.1852 164.465 24.3602 164.27 24.5474C163.676 25.0926 163.078 25.3652 162.476 25.3652C161.987 25.3652 161.625 25.1862 161.389 24.8281C161.161 24.4701 161.047 23.8923 161.047 23.0947C161.047 22.46 161.117 21.6787 161.255 20.751C161.401 19.8151 161.576 18.9769 161.78 18.2363L161.877 17.9189C161.877 17.8701 161.902 17.7684 161.951 17.6138C162.252 16.507 162.528 15.6891 162.781 15.1602C163.033 14.623 163.338 14.1917 163.696 13.8662C164.014 13.6139 164.372 13.4878 164.771 13.4878C165.348 13.4878 165.698 13.8377 165.82 14.5376C165.934 14.4399 166.044 14.326 166.15 14.1958C166.386 13.911 166.569 13.7238 166.699 13.6343C166.829 13.5366 166.98 13.4878 167.151 13.4878C167.851 13.4878 168.201 14.1795 168.201 15.563C168.201 16.3198 168.119 17.0522 167.957 17.7603C167.794 18.4683 167.586 19.0461 167.334 19.4937C167.09 19.9412 166.846 20.165 166.602 20.165C166.333 20.165 166.199 19.6564 166.199 18.6392C166.199 18.1021 166.166 17.6829 166.101 17.3818C166.044 17.0726 165.951 16.8325 165.82 16.6616C165.576 17.1174 165.417 18.159 165.344 19.7866C165.287 20.7306 165.247 21.3247 165.222 21.5688ZM174.426 18.8467L175.159 17.9922C175.899 17.1702 176.485 16.5599 176.917 16.1611C177.356 15.7542 177.747 15.4613 178.088 15.2822C178.438 15.1032 178.792 15.0137 179.15 15.0137C179.728 15.0137 180.135 15.1683 180.371 15.4775C180.607 15.7868 180.725 16.3239 180.725 17.0889C180.725 17.4062 180.693 17.8742 180.627 18.4927C180.53 19.3146 180.481 20.0877 180.481 20.812C180.481 21.6258 180.522 22.285 180.603 22.7896C180.66 23.0988 180.745 23.408 180.859 23.7173C180.941 24.0103 180.981 24.2096 180.981 24.3154C180.981 24.4456 180.933 24.5474 180.835 24.6206C180.583 24.8403 180.249 25.0316 179.834 25.1943C179.419 25.3571 179.069 25.4385 178.784 25.4385C178.32 25.4385 177.897 25.2798 177.515 24.9624C177.14 24.645 176.847 24.2056 176.636 23.644C176.432 23.0825 176.331 22.4478 176.331 21.7397C176.331 21.2677 176.379 20.7103 176.477 20.0674L176.428 20.0186C176.078 20.4092 175.793 20.7184 175.574 20.9463C175.362 21.1742 175.163 21.3898 174.976 21.5933C174.064 22.6349 173.291 23.5749 172.656 24.4131C172.412 24.7386 172.188 25.0234 171.985 25.2676C171.684 25.5687 171.342 25.7192 170.959 25.7192C170.439 25.7192 170.015 25.5239 169.69 25.1333C169.364 24.7427 169.202 24.2381 169.202 23.6196C169.202 23.2371 169.246 22.7692 169.336 22.2158C169.425 21.6624 169.543 21.0724 169.69 20.4458C169.845 19.811 170.024 19.16 170.227 18.4927C170.439 17.8254 170.667 17.1906 170.911 16.5884C171.285 15.5874 171.741 14.8062 172.278 14.2446C172.644 13.8784 173.088 13.6953 173.608 13.6953C174.455 13.6953 174.878 14.2446 174.878 15.3433C174.878 16.1489 174.711 17.3005 174.377 18.7979L174.426 18.8467Z" fill="#374B5C"/>
<path d="M22.4751 31.712C17.6985 31.6808 12.9816 30.6479 8.62907 28.68C8.36994 28.5646 8.14999 28.3762 7.99605 28.1379C7.8421 27.8996 7.76083 27.6217 7.7621 27.338V15.426C7.76263 15.036 7.91778 14.6622 8.19353 14.3864C8.46928 14.1107 8.84311 13.9555 9.23308 13.955H35.7161C36.1061 13.9555 36.4799 14.1107 36.7557 14.3864C37.0314 14.6622 37.1866 15.036 37.1871 15.426V27.333C37.1884 27.6167 37.1071 27.8946 36.9531 28.1329C36.7992 28.3712 36.5792 28.5596 36.3201 28.675C31.9683 30.6445 27.2517 31.6791 22.4751 31.712Z" fill="#FF9100"/>
<path d="M22.471 22.061C22.2746 22.0612 22.0801 22.0221 21.899 21.946L0.89902 13.086C0.628138 12.9718 0.397676 12.7791 0.237368 12.5327C0.0770604 12.2863 -0.00574487 11.9975 -0.000363784 11.7036C0.0050173 11.4097 0.0983301 11.1241 0.26755 10.8837C0.43677 10.6434 0.674158 10.4592 0.949038 10.355L21.949 2.388C22.287 2.25836 22.661 2.25836 22.999 2.388L43.718 10.355C43.9914 10.46 44.2271 10.6442 44.3952 10.884C44.5632 11.1239 44.6558 11.4084 44.6612 11.7012C44.6666 11.9939 44.5844 12.2816 44.4253 12.5275C44.2662 12.7733 44.0373 12.966 43.768 13.081L23.049 21.941C22.8664 22.0196 22.6698 22.0604 22.471 22.061Z" fill="#FF9100"/>
<path d="M10.2151 29.485C11.2986 29.485 12.1771 28.6066 12.1771 27.523C12.1771 26.4394 11.2986 25.561 10.2151 25.561C9.13147 25.561 8.25305 26.4394 8.25305 27.523C8.25305 28.6066 9.13147 29.485 10.2151 29.485Z" fill="white"/>
<path opacity="0.2" d="M43.841 11.821L23.121 20.681C22.9594 20.7497 22.7856 20.785 22.61 20.785C22.4344 20.785 22.2606 20.7497 22.099 20.681L1.09899 11.821C0.835316 11.7122 0.615399 11.5187 0.473993 11.271C0.381488 11.4315 0.324163 11.6099 0.305842 11.7943C0.28752 11.9787 0.308628 12.1648 0.367731 12.3404C0.426834 12.516 0.522601 12.6771 0.648676 12.8129C0.774751 12.9486 0.928243 13.0561 1.09899 13.128L22.099 21.988C22.2606 22.0566 22.4344 22.0919 22.61 22.0919C22.7856 22.0919 22.9594 22.0566 23.121 21.988L43.841 13.128C44.011 13.0554 44.1636 12.9477 44.2888 12.8118C44.4141 12.6759 44.5091 12.515 44.5676 12.3397C44.6261 12.1644 44.6467 11.9787 44.6282 11.7948C44.6097 11.6109 44.5523 11.4331 44.46 11.273C44.3195 11.5185 44.102 11.7108 43.841 11.82V11.821Z" fill="black"/>
<path d="M10.379 27.515C10.4657 27.515 10.5489 27.4806 10.6102 27.4192C10.6716 27.3579 10.706 27.2747 10.706 27.188V16.248L21.489 12.32C21.5757 12.3213 21.6594 12.2882 21.7217 12.2278C21.7839 12.1674 21.8197 12.0847 21.821 11.998C21.8223 11.9113 21.7891 11.8276 21.7288 11.7653C21.6684 11.7031 21.5857 11.6673 21.499 11.666L10.716 15.594C10.6292 15.5919 10.5428 15.6075 10.4622 15.6398C10.3816 15.6722 10.3083 15.7205 10.247 15.782C10.1841 15.8423 10.1339 15.9146 10.0996 15.9947C10.0652 16.0747 10.0473 16.1609 10.047 16.248V27.188C10.047 27.2314 10.0556 27.2743 10.0724 27.3143C10.0891 27.3543 10.1136 27.3906 10.1445 27.421C10.1754 27.4515 10.2121 27.4754 10.2523 27.4916C10.2926 27.5077 10.3356 27.5157 10.379 27.515Z" fill="white"/>
</svg>
