<svg width="240" height="45" viewBox="0 0 240 45" fill="none" xmlns="http://www.w3.org/2000/svg">
<path d="M80.6558 15.3125C79.937 16.0312 79.411 16.625 79.0776 17.0938C78.7547 17.5521 78.4058 18.2135 78.0308 19.0781C77.7495 19.7031 77.5464 20.3646 77.4214 21.0625C77.2651 21.6771 77.187 22.4688 77.187 23.4375C77.187 24.8021 77.3172 25.9427 77.5776 26.8594C77.8381 27.7656 78.2235 28.4531 78.7339 28.9219C79.2443 29.3802 79.8589 29.6094 80.5776 29.6094C81.161 29.6094 81.7547 29.3958 82.3589 28.9688C82.9735 28.5417 83.5256 27.9844 84.0151 27.2969C84.5151 26.599 84.9162 25.8229 85.2183 24.9688C85.5203 24.1146 85.6714 23.2917 85.6714 22.5C85.6714 21.0729 85.1818 19.5833 84.2026 18.0312C83.8381 17.4062 83.6558 16.9792 83.6558 16.75C83.6558 16.3229 83.8901 15.8958 84.3589 15.4688C84.8901 14.9583 85.4995 14.5052 86.187 14.1094C86.8745 13.7135 87.4162 13.5156 87.812 13.5156C88.0412 13.5156 88.2808 13.5729 88.5308 13.6875C88.7912 13.7917 88.9891 13.9271 89.1245 14.0938C89.4578 14.4375 89.7339 15.0729 89.9526 16C90.1714 16.9167 90.2808 17.8906 90.2808 18.9219C90.2808 21.3802 89.7756 23.651 88.7651 25.7344C87.7651 27.8073 86.4006 29.4531 84.6714 30.6719C82.9526 31.8802 81.0881 32.4844 79.0776 32.4844C77.9214 32.4844 76.7756 32.2708 75.6401 31.8438C74.5047 31.4167 73.5828 30.8438 72.8745 30.125C71.6766 28.9271 71.0776 27.3594 71.0776 25.4219C71.0776 24.2969 71.2964 23.1042 71.7339 21.8438C72.1714 20.5833 72.7703 19.3594 73.5308 18.1719C74.3016 16.974 75.187 15.8802 76.187 14.8906C77.1974 13.901 78.2339 13.1198 79.2964 12.5469C80.2651 12.026 81.3068 11.6094 82.4214 11.2969C83.536 10.9844 84.5151 10.8281 85.3589 10.8281C86.5464 10.8281 87.1401 11.0104 87.1401 11.375C87.1401 11.5208 87.0151 11.7448 86.7651 12.0469C86.3068 12.474 85.9058 12.776 85.562 12.9531C85.2287 13.1302 84.6766 13.3281 83.9058 13.5469C83.0724 13.7969 82.4683 14.026 82.0933 14.2344C81.7183 14.4323 81.2391 14.7917 80.6558 15.3125ZM98.1401 24.0469L99.0776 22.9531C100.026 21.901 100.776 21.1198 101.328 20.6094C101.89 20.0885 102.39 19.7135 102.828 19.4844C103.276 19.2552 103.729 19.1406 104.187 19.1406C104.927 19.1406 105.447 19.3385 105.75 19.7344C106.052 20.1302 106.203 20.8177 106.203 21.7969C106.203 22.2031 106.161 22.8021 106.078 23.5938C105.953 24.6458 105.89 25.6354 105.89 26.5625C105.89 27.6042 105.942 28.4479 106.046 29.0938C106.119 29.4896 106.229 29.8854 106.375 30.2812C106.479 30.6562 106.531 30.9115 106.531 31.0469C106.531 31.2135 106.468 31.3438 106.343 31.4375C106.02 31.7188 105.593 31.9635 105.062 32.1719C104.531 32.3802 104.083 32.4844 103.718 32.4844C103.125 32.4844 102.583 32.2812 102.093 31.875C101.614 31.4688 101.239 30.9062 100.968 30.1875C100.708 29.4688 100.578 28.6562 100.578 27.75C100.578 27.1458 100.64 26.4323 100.765 25.6094L100.703 25.5469C100.255 26.0469 99.8901 26.4427 99.6089 26.7344C99.3381 27.026 99.0828 27.3021 98.8433 27.5625C97.6766 28.8958 96.687 30.099 95.8745 31.1719C95.562 31.5885 95.2756 31.9531 95.0151 32.2656C94.6297 32.651 94.1922 32.8438 93.7026 32.8438C93.036 32.8438 92.4943 32.5938 92.0776 32.0938C91.661 31.5938 91.4526 30.9479 91.4526 30.1562C91.4526 29.6667 91.5099 29.0677 91.6245 28.3594C91.7391 27.651 91.8901 26.8958 92.0776 26.0938C92.2756 25.2812 92.5047 24.4479 92.7651 23.5938C93.036 22.7396 93.3276 21.9271 93.6401 21.1562C94.1193 19.875 94.7026 18.875 95.3901 18.1562C95.8589 17.6875 96.4266 17.4531 97.0933 17.4531C98.1766 17.4531 98.7183 18.1562 98.7183 19.5625C98.7183 20.5938 98.5047 22.0677 98.0776 23.9844L98.1401 24.0469ZM116.187 20.6094C116.604 19.4323 116.953 18.2031 117.234 16.9219C117.515 15.6302 117.656 14.6406 117.656 13.9531C117.656 13.7656 117.604 13.6719 117.5 13.6719C117.333 13.6719 117.041 14.0469 116.625 14.7969C116.208 15.5365 115.859 16.2917 115.578 17.0625C114.973 18.7604 114.505 20.1719 114.171 21.2969C113.848 22.4115 113.625 23.349 113.5 24.1094C113.375 24.8698 113.312 25.6458 113.312 26.4375C113.312 27.1146 113.385 27.6094 113.531 27.9219C113.687 28.2344 113.932 28.3906 114.265 28.3906C114.838 28.3906 115.479 28.1406 116.187 27.6406C116.895 27.1302 117.536 26.4635 118.109 25.6406C118.557 25.026 118.906 24.7188 119.156 24.7188C119.479 24.7188 119.64 24.974 119.64 25.4844C119.64 26.599 119.291 27.6875 118.593 28.75C117.895 29.8125 116.994 30.6771 115.89 31.3438C114.796 32 113.677 32.3281 112.531 32.3281C111.125 32.3281 109.979 31.8854 109.093 31C108.208 30.1146 107.765 28.9583 107.765 27.5312C107.765 26.3646 108.015 25 108.515 23.4375C109.015 21.8646 109.682 20.2865 110.515 18.7031C111.359 17.1094 112.281 15.6667 113.281 14.375C114.281 13.0833 115.27 12.0938 116.25 11.4062C116.854 10.9583 117.526 10.7344 118.265 10.7344C118.828 10.7344 119.338 10.9115 119.796 11.2656C120.255 11.6094 120.609 12.0938 120.859 12.7188C121.109 13.3438 121.234 14.0365 121.234 14.7969C121.234 16.4323 120.911 18.0312 120.265 19.5938C119.63 21.1562 118.739 22.5104 117.593 23.6562C117.052 24.2083 116.531 24.6406 116.031 24.9531C115.531 25.2656 115.093 25.4219 114.718 25.4219C114.354 25.4219 114.171 25.2812 114.171 25C114.171 24.8438 114.307 24.5469 114.578 24.1094C114.942 23.5365 115.369 22.6719 115.859 21.5156C115.901 21.401 115.947 21.2812 116 21.1562C116.052 21.0208 116.114 20.8385 116.187 20.6094ZM124.703 32.4531C124.234 32.4219 123.807 32.2083 123.421 31.8125C123.036 31.3958 122.76 30.9479 122.593 30.4688C122.437 29.9792 122.359 29.349 122.359 28.5781C122.359 26.8594 122.677 24.9219 123.312 22.7656C123.958 20.599 124.687 19.0312 125.5 18.0625C125.822 17.6562 126.27 17.4531 126.843 17.4531C127.447 17.4531 127.932 17.7292 128.296 18.2812C128.671 18.8333 128.859 19.5573 128.859 20.4531C128.859 21.776 128.666 23.3281 128.281 25.1094C127.906 26.8802 127.375 28.724 126.687 30.6406C126.416 31.4115 126.083 31.9323 125.687 32.2031C125.416 32.3698 125.098 32.4531 124.734 32.4531H124.703ZM126.578 16.75C125.598 16.7188 125.109 16.1302 125.109 14.9844C125.109 14.4115 125.25 13.75 125.531 13C125.822 12.2396 126.151 11.6771 126.515 11.3125C126.703 11.1146 126.89 10.974 127.078 10.8906C127.276 10.8073 127.526 10.7656 127.828 10.7656C128.348 10.7656 128.729 10.8958 128.968 11.1562C129.218 11.4062 129.343 11.8281 129.343 12.4219C129.343 13.1615 129.213 13.8646 128.953 14.5312C128.703 15.1875 128.364 15.724 127.937 16.1406C127.51 16.5469 127.072 16.75 126.625 16.75H126.578ZM137.109 24.0469L138.046 22.9531C138.994 21.901 139.744 21.1198 140.296 20.6094C140.859 20.0885 141.359 19.7135 141.796 19.4844C142.244 19.2552 142.697 19.1406 143.156 19.1406C143.895 19.1406 144.416 19.3385 144.718 19.7344C145.02 20.1302 145.171 20.8177 145.171 21.7969C145.171 22.2031 145.13 22.8021 145.046 23.5938C144.921 24.6458 144.859 25.6354 144.859 26.5625C144.859 27.6042 144.911 28.4479 145.015 29.0938C145.088 29.4896 145.197 29.8854 145.343 30.2812C145.447 30.6562 145.5 30.9115 145.5 31.0469C145.5 31.2135 145.437 31.3438 145.312 31.4375C144.989 31.7188 144.562 31.9635 144.031 32.1719C143.5 32.3802 143.052 32.4844 142.687 32.4844C142.093 32.4844 141.552 32.2812 141.062 31.875C140.583 31.4688 140.208 30.9062 139.937 30.1875C139.677 29.4688 139.546 28.6562 139.546 27.75C139.546 27.1458 139.609 26.4323 139.734 25.6094L139.671 25.5469C139.223 26.0469 138.859 26.4427 138.578 26.7344C138.307 27.026 138.052 27.3021 137.812 27.5625C136.645 28.8958 135.656 30.099 134.843 31.1719C134.531 31.5885 134.244 31.9531 133.984 32.2656C133.598 32.651 133.161 32.8438 132.671 32.8438C132.005 32.8438 131.463 32.5938 131.046 32.0938C130.63 31.5938 130.421 30.9479 130.421 30.1562C130.421 29.6667 130.479 29.0677 130.593 28.3594C130.708 27.651 130.859 26.8958 131.046 26.0938C131.244 25.2812 131.473 24.4479 131.734 23.5938C132.005 22.7396 132.296 21.9271 132.609 21.1562C133.088 19.875 133.671 18.875 134.359 18.1562C134.828 17.6875 135.395 17.4531 136.062 17.4531C137.145 17.4531 137.687 18.1562 137.687 19.5625C137.687 20.5938 137.473 22.0677 137.046 23.9844L137.109 24.0469ZM152.109 27.4375C152.588 27.1146 152.953 26.7917 153.203 26.4688C153.755 25.7917 154.182 25.0156 154.484 24.1406C154.723 23.5677 154.911 22.9271 155.046 22.2188C155.182 21.5104 155.25 20.849 155.25 20.2344C155.25 19.6615 155.13 19.375 154.89 19.375C154.557 19.375 154.046 20.1094 153.359 21.5781C152.953 22.4635 152.619 23.349 152.359 24.2344C152.109 25.1094 151.984 25.8646 151.984 26.5C151.984 26.7188 152.026 27.0312 152.109 27.4375ZM152.14 27.9375C152.255 28.5625 152.661 28.875 153.359 28.875C154.14 28.875 155.156 28.4167 156.406 27.5C157.135 26.9688 157.625 26.7031 157.875 26.7031C158.187 26.7031 158.479 26.7865 158.75 26.9531C159.02 27.1198 159.156 27.2917 159.156 27.4688C159.156 27.6562 159.005 27.901 158.703 28.2031C158.151 28.7552 157.515 29.2969 156.796 29.8281C156.078 30.349 155.385 30.7865 154.718 31.1406C154.052 31.4844 153.385 31.7604 152.718 31.9688C152.052 32.1667 151.458 32.2656 150.937 32.2656C149.635 32.2656 148.593 31.8958 147.812 31.1562C147.031 30.4062 146.64 29.4115 146.64 28.1719C146.64 27.224 146.843 26.1562 147.25 24.9688C147.666 23.7708 148.223 22.651 148.921 21.6094C149.744 20.3906 150.755 19.375 151.953 18.5625C153.432 17.5833 154.848 17.0938 156.203 17.0938C157.182 17.0938 157.947 17.4062 158.5 18.0312C159.062 18.6458 159.343 19.4948 159.343 20.5781C159.343 21.4219 159.119 22.3021 158.671 23.2188C158.234 24.1354 157.583 25.0156 156.718 25.8594C156.01 26.5677 155.312 27.1198 154.625 27.5156C153.947 27.9115 153.354 28.1094 152.843 28.1094C152.614 28.1094 152.38 28.0521 152.14 27.9375ZM177.828 18.8906L177.312 20.1406C176.635 21.7448 176.005 23.3438 175.421 24.9375C175.14 25.7083 174.713 27.0521 174.14 28.9688C175.005 28.8958 176.166 28.7135 177.625 28.4219C178.562 28.2344 179.13 28.1406 179.328 28.1406C179.692 28.1406 179.875 28.2865 179.875 28.5781C179.875 28.9219 179.671 29.4062 179.265 30.0312C178.869 30.6458 178.421 31.1771 177.921 31.625C177.578 31.9479 177.067 32.1719 176.39 32.2969C175.713 32.4219 174.656 32.4844 173.218 32.4844C171.875 32.4844 170.838 32.4427 170.109 32.3594C170.098 32.3594 169.927 32.3073 169.593 32.2031C169 31.9531 168.703 31.4323 168.703 30.6406C168.703 30.0677 168.864 29.0208 169.187 27.5C169.52 25.9792 170 24.0885 170.625 21.8281C172.041 16.7865 173.109 13.6719 173.828 12.4844C174.057 12.0781 174.343 11.7656 174.687 11.5469C175.041 11.3177 175.52 11.1406 176.125 11.0156C176.708 10.8906 177.38 10.8281 178.14 10.8281C178.848 10.8281 179.343 10.9219 179.625 11.1094C179.916 11.2865 180.062 11.599 180.062 12.0469C180.062 12.474 179.875 13.276 179.5 14.4531C179.125 15.6198 178.567 17.099 177.828 18.8906ZM186.578 27.4375C187.057 27.1146 187.421 26.7917 187.671 26.4688C188.223 25.7917 188.651 25.0156 188.953 24.1406C189.192 23.5677 189.38 22.9271 189.515 22.2188C189.651 21.5104 189.718 20.849 189.718 20.2344C189.718 19.6615 189.598 19.375 189.359 19.375C189.026 19.375 188.515 20.1094 187.828 21.5781C187.421 22.4635 187.088 23.349 186.828 24.2344C186.578 25.1094 186.453 25.8646 186.453 26.5C186.453 26.7188 186.494 27.0312 186.578 27.4375ZM186.609 27.9375C186.723 28.5625 187.13 28.875 187.828 28.875C188.609 28.875 189.625 28.4167 190.875 27.5C191.604 26.9688 192.093 26.7031 192.343 26.7031C192.656 26.7031 192.947 26.7865 193.218 26.9531C193.489 27.1198 193.625 27.2917 193.625 27.4688C193.625 27.6562 193.473 27.901 193.171 28.2031C192.619 28.7552 191.984 29.2969 191.265 29.8281C190.546 30.349 189.854 30.7865 189.187 31.1406C188.52 31.4844 187.854 31.7604 187.187 31.9688C186.52 32.1667 185.927 32.2656 185.406 32.2656C184.104 32.2656 183.062 31.8958 182.281 31.1562C181.5 30.4062 181.109 29.4115 181.109 28.1719C181.109 27.224 181.312 26.1562 181.718 24.9688C182.135 23.7708 182.692 22.651 183.39 21.6094C184.213 20.3906 185.223 19.375 186.421 18.5625C187.901 17.5833 189.317 17.0938 190.671 17.0938C191.651 17.0938 192.416 17.4062 192.968 18.0312C193.531 18.6458 193.812 19.4948 193.812 20.5781C193.812 21.4219 193.588 22.3021 193.14 23.2188C192.703 24.1354 192.052 25.0156 191.187 25.8594C190.479 26.5677 189.781 27.1198 189.093 27.5156C188.416 27.9115 187.822 28.1094 187.312 28.1094C187.083 28.1094 186.848 28.0521 186.609 27.9375ZM206.484 24.1719L206.187 24.2656C205.437 24.474 204.895 24.5781 204.562 24.5781C204.156 24.5781 203.953 24.474 203.953 24.2656C203.953 24.1927 204.036 24 204.203 23.6875C204.786 22.8021 205.078 21.9688 205.078 21.1875C205.078 20.7396 205 20.3333 204.843 19.9688C204.687 19.5938 204.515 19.4062 204.328 19.4062C204.161 19.4062 203.906 19.5833 203.562 19.9375C202.593 20.9896 201.822 22.0677 201.25 23.1719C200.687 24.276 200.406 25.2604 200.406 26.125C200.406 26.6979 200.52 27.1719 200.75 27.5469C200.989 27.9219 201.286 28.1094 201.64 28.1094C201.942 28.1094 202.505 27.7865 203.328 27.1406C204.161 26.4948 205.093 25.6406 206.125 24.5781L206.546 24.2344L206.484 24.1719ZM205.546 27.75V27.8125L205.484 27.75C204.515 28.8854 203.625 29.8177 202.812 30.5469C202.01 31.2656 201.265 31.8073 200.578 32.1719C199.901 32.5365 199.276 32.7188 198.703 32.7188C197.536 32.7188 196.572 32.3281 195.812 31.5469C195.052 30.7656 194.671 29.776 194.671 28.5781C194.671 27.8385 194.859 26.9635 195.234 25.9531C195.609 24.9427 196.125 23.9531 196.781 22.9844C197.875 21.401 199.25 20.0573 200.906 18.9531C202.614 17.8177 204.26 17.25 205.843 17.25C207.177 17.25 208.27 17.526 209.125 18.0781C209.989 18.6198 210.421 19.3073 210.421 20.1406C210.421 20.7552 210.208 21.4062 209.781 22.0938C210.343 22.0938 210.697 22.1562 210.843 22.2812C210.989 22.3958 211.062 22.6719 211.062 23.1094C211.062 23.0677 211.036 23.2812 210.984 23.75C210.921 24.7812 210.89 25.7448 210.89 26.6406C210.89 27.1094 210.895 27.4635 210.906 27.7031C210.916 27.9427 210.937 28.2188 210.968 28.5312C211 28.8438 211.031 29.0938 211.062 29.2812C211.145 29.7708 211.281 30.2552 211.468 30.7344C210.843 31.349 210.244 31.8021 209.671 32.0938C209.098 32.375 208.515 32.5156 207.921 32.5156C206.317 32.5156 205.515 31.1719 205.515 28.4844C205.515 28.1719 205.526 27.9271 205.546 27.75ZM217.796 27.5312L217.734 27.8438C217.734 28.0208 217.713 28.276 217.671 28.6094C217.63 29.1198 217.572 29.5365 217.5 29.8594C217.427 30.1823 217.317 30.4531 217.171 30.6719C217.026 30.8802 216.828 31.1042 216.578 31.3438C215.817 32.0417 215.052 32.3906 214.281 32.3906C213.656 32.3906 213.192 32.1615 212.89 31.7031C212.598 31.2448 212.453 30.5052 212.453 29.4844C212.453 28.6719 212.541 27.6719 212.718 26.4844C212.906 25.2865 213.13 24.2135 213.39 23.2656L213.515 22.8594C213.515 22.7969 213.546 22.6667 213.609 22.4688C213.994 21.0521 214.348 20.0052 214.671 19.3281C214.994 18.6406 215.385 18.0885 215.843 17.6719C216.25 17.349 216.708 17.1875 217.218 17.1875C217.958 17.1875 218.406 17.6354 218.562 18.5312C218.708 18.4062 218.848 18.2604 218.984 18.0938C219.286 17.7292 219.52 17.4896 219.687 17.375C219.854 17.25 220.046 17.1875 220.265 17.1875C221.161 17.1875 221.609 18.0729 221.609 19.8438C221.609 20.8125 221.505 21.75 221.296 22.6562C221.088 23.5625 220.822 24.3021 220.5 24.875C220.187 25.4479 219.875 25.7344 219.562 25.7344C219.218 25.7344 219.046 25.0833 219.046 23.7812C219.046 23.0938 219.005 22.5573 218.921 22.1719C218.848 21.776 218.729 21.4688 218.562 21.25C218.25 21.8333 218.046 23.1667 217.953 25.25C217.88 26.4583 217.828 27.2188 217.796 27.5312ZM229.578 24.0469L230.515 22.9531C231.463 21.901 232.213 21.1198 232.765 20.6094C233.328 20.0885 233.828 19.7135 234.265 19.4844C234.713 19.2552 235.166 19.1406 235.625 19.1406C236.364 19.1406 236.885 19.3385 237.187 19.7344C237.489 20.1302 237.64 20.8177 237.64 21.7969C237.64 22.2031 237.598 22.8021 237.515 23.5938C237.39 24.6458 237.328 25.6354 237.328 26.5625C237.328 27.6042 237.38 28.4479 237.484 29.0938C237.557 29.4896 237.666 29.8854 237.812 30.2812C237.916 30.6562 237.968 30.9115 237.968 31.0469C237.968 31.2135 237.906 31.3438 237.781 31.4375C237.458 31.7188 237.031 31.9635 236.5 32.1719C235.968 32.3802 235.52 32.4844 235.156 32.4844C234.562 32.4844 234.02 32.2812 233.531 31.875C233.052 31.4688 232.677 30.9062 232.406 30.1875C232.145 29.4688 232.015 28.6562 232.015 27.75C232.015 27.1458 232.078 26.4323 232.203 25.6094L232.14 25.5469C231.692 26.0469 231.328 26.4427 231.046 26.7344C230.776 27.026 230.52 27.3021 230.281 27.5625C229.114 28.8958 228.125 30.099 227.312 31.1719C227 31.5885 226.713 31.9531 226.453 32.2656C226.067 32.651 225.63 32.8438 225.14 32.8438C224.473 32.8438 223.932 32.5938 223.515 32.0938C223.098 31.5938 222.89 30.9479 222.89 30.1562C222.89 29.6667 222.947 29.0677 223.062 28.3594C223.177 27.651 223.328 26.8958 223.515 26.0938C223.713 25.2812 223.942 24.4479 224.203 23.5938C224.473 22.7396 224.765 21.9271 225.078 21.1562C225.557 19.875 226.14 18.875 226.828 18.1562C227.296 17.6875 227.864 17.4531 228.531 17.4531C229.614 17.4531 230.156 18.1562 230.156 19.5625C230.156 20.5938 229.942 22.0677 229.515 23.9844L229.578 24.0469Z" fill="#FBFBFB"/>
<path d="M32.136 43.7069C25.5123 43.663 18.9715 42.2301 12.936 39.5009C12.5771 39.3404 12.2726 39.0791 12.0596 38.7487C11.8465 38.4183 11.7341 38.0331 11.736 37.6399V21.1269C11.7365 20.5858 11.9517 20.067 12.3344 19.6843C12.717 19.3017 13.2359 19.0865 13.777 19.0859H50.507C51.0482 19.0865 51.567 19.3017 51.9496 19.6843C52.3323 20.067 52.5475 20.5858 52.548 21.1269V37.6429C52.5499 38.0361 52.4375 38.4213 52.2244 38.7517C52.0114 39.0821 51.7069 39.3434 51.348 39.5039C45.3086 42.2337 38.7635 43.6656 32.136 43.7069Z" fill="#FBFBFB" stroke="#FF9100"/>
<path d="M32.131 30.329C31.8588 30.3294 31.5891 30.2753 31.338 30.17L2.21204 17.882C1.83617 17.7238 1.51635 17.4565 1.29386 17.1148C1.07136 16.773 0.956412 16.3724 0.963839 15.9646C0.971267 15.5569 1.10075 15.1607 1.33554 14.8273C1.57034 14.4938 1.89966 14.2384 2.28104 14.094L31.407 3.044C31.8757 2.86424 32.3944 2.86424 32.863 3.044L61.5991 14.094C61.978 14.2399 62.3047 14.4954 62.5376 14.828C62.7705 15.1605 62.8989 15.555 62.9064 15.9609C62.9139 16.3669 62.8002 16.7658 62.5798 17.1068C62.3594 17.4477 62.0423 17.7152 61.669 17.875L32.933 30.163C32.6796 30.2719 32.4068 30.3283 32.131 30.329Z" fill="#FBFBFB" stroke="#FF9100"/>
<path d="M15.132 40.6251C16.6348 40.6251 17.853 39.4069 17.853 37.9041C17.853 36.4013 16.6348 35.1831 15.132 35.1831C13.6292 35.1831 12.411 36.4013 12.411 37.9041C12.411 39.4069 13.6292 40.6251 15.132 40.6251Z" fill="#FF9100"/>
<path opacity="0.2" d="M61.77 16.132L33.034 28.416C32.8098 28.5113 32.5686 28.5603 32.325 28.5603C32.0814 28.5603 31.8403 28.5113 31.616 28.416L2.49403 16.136C2.12841 15.9854 1.82336 15.7173 1.62702 15.374C1.49869 15.5967 1.4192 15.8442 1.39378 16.0999C1.36836 16.3557 1.3976 16.614 1.47959 16.8576C1.56158 17.1012 1.69444 17.3245 1.86933 17.5129C2.04423 17.7012 2.25716 17.8502 2.49403 17.95L31.62 30.238C31.8443 30.3333 32.0854 30.3823 32.329 30.3823C32.5726 30.3823 32.8138 30.3333 33.038 30.238L61.775 17.95C62.0109 17.8495 62.2228 17.7001 62.3966 17.5117C62.5705 17.3232 62.7024 17.1 62.7835 16.8568C62.8647 16.6136 62.8934 16.356 62.8676 16.1009C62.8419 15.8458 62.7622 15.5991 62.634 15.377C62.4392 15.7178 62.1372 15.9847 61.775 16.136L61.77 16.132Z" fill="#FBFBFB"/>
<path d="M15.3601 37.893C15.4803 37.893 15.5955 37.8453 15.6804 37.7604C15.7654 37.6754 15.8131 37.5602 15.8131 37.44V22.268L30.7681 16.82C30.8293 16.8237 30.8906 16.8149 30.9483 16.7942C31.0061 16.7736 31.059 16.7414 31.1039 16.6997C31.1489 16.658 31.1849 16.6076 31.2099 16.5516C31.2349 16.4956 31.2482 16.4352 31.2492 16.3738C31.2501 16.3125 31.2386 16.2517 31.2154 16.1949C31.1922 16.1382 31.1577 16.0867 31.1141 16.0437C31.0704 16.0006 31.0185 15.9668 30.9615 15.9444C30.9044 15.9219 30.8434 15.9113 30.7821 15.913L15.8271 21.361C15.7067 21.3582 15.5871 21.3799 15.4753 21.4248C15.3636 21.4697 15.2621 21.5368 15.1771 21.622C15.0912 21.7062 15.0231 21.8067 14.9767 21.9177C14.9303 22.0287 14.9067 22.1478 14.9071 22.268V37.441C14.9074 37.561 14.9552 37.676 15.0401 37.7607C15.1251 37.8454 15.2401 37.893 15.3601 37.893Z" fill="#FF9100"/>
</svg>
