<svg width="84" height="56" viewBox="0 0 84 56" fill="none" xmlns="http://www.w3.org/2000/svg">
<path d="M42.265 55.2921C33.4484 55.2334 24.7423 53.3256 16.709 49.6921C16.2309 49.4788 15.8251 49.1311 15.541 48.6913C15.2569 48.2515 15.1069 47.7387 15.109 47.2151V25.2421C15.1098 24.522 15.3962 23.8317 15.9054 23.3225C16.4146 22.8133 17.1049 22.5269 17.825 22.5261H66.705C67.4251 22.5269 68.1155 22.8133 68.6247 23.3225C69.1338 23.8317 69.4202 24.522 69.421 25.2421V47.2191C69.4232 47.7427 69.2731 48.2555 68.989 48.6953C68.705 49.1351 68.2991 49.4828 67.821 49.6961C59.7875 53.3283 51.0813 55.2346 42.265 55.2921Z" fill="#FF9100"/>
<path d="M42.259 37.488C41.8967 37.4884 41.538 37.4163 41.204 37.276L2.44201 20.922C1.9419 20.7114 1.51637 20.3557 1.22036 19.9009C0.924355 19.4461 0.771434 18.913 0.781336 18.3704C0.791238 17.8278 0.963529 17.3007 1.27593 16.8569C1.58834 16.4132 2.02653 16.0733 2.53399 15.881L41.296 1.17603C41.9198 0.936767 42.6102 0.936767 43.234 1.17603L81.477 15.881C81.9813 16.0751 82.4164 16.4151 82.7264 16.8578C83.0364 17.3004 83.2074 17.8254 83.2173 18.3657C83.2273 18.906 83.0759 19.437 82.7824 19.8908C82.489 20.3446 82.0668 20.7005 81.57 20.913L43.327 37.267C42.9893 37.4107 42.626 37.4845 42.259 37.484V37.488Z" fill="#FF9100"/>
<path d="M19.636 51.191C21.6358 51.191 23.257 49.5698 23.257 47.57C23.257 45.5702 21.6358 43.949 19.636 43.949C17.6362 43.949 16.015 45.5702 16.015 47.57C16.015 49.5698 17.6362 51.191 19.636 51.191Z" fill="white"/>
<path opacity="0.2" d="M81.703 18.596L43.46 34.949C43.1616 35.0757 42.8407 35.1411 42.5165 35.1411C42.1923 35.1411 41.8714 35.0757 41.573 34.949L2.81101 18.596C2.32435 18.3957 1.91831 18.0389 1.65702 17.582C1.48614 17.8784 1.38024 18.2077 1.34638 18.5481C1.31251 18.8885 1.35147 19.2322 1.46061 19.5564C1.56975 19.8806 1.74658 20.1779 1.9794 20.4285C2.21223 20.6791 2.49571 20.8773 2.81101 21.01L41.573 37.363C41.8714 37.4897 42.1923 37.5551 42.5165 37.5551C42.8407 37.5551 43.1616 37.4897 43.46 37.363L81.703 21.01C82.0168 20.8762 82.2987 20.6773 82.5299 20.4265C82.7612 20.1757 82.9367 19.8787 83.0447 19.5551C83.1527 19.2315 83.1908 18.8887 83.1566 18.5493C83.1223 18.2098 83.0165 17.8815 82.846 17.586C82.5867 18.0395 82.1849 18.3945 81.703 18.596Z" fill="black"/>
<path d="M19.939 47.559C20.0981 47.559 20.2507 47.4958 20.3633 47.3833C20.4758 47.2708 20.539 47.1182 20.539 46.959V26.759L40.439 19.508C40.5991 19.5104 40.7535 19.4491 40.8684 19.3376C40.9832 19.2261 41.0491 19.0736 41.0515 18.9135C41.0539 18.7535 40.9926 18.599 40.8811 18.4841C40.7696 18.3693 40.6171 18.3034 40.457 18.301L20.557 25.552C20.3968 25.5483 20.2376 25.5772 20.0889 25.6368C19.9402 25.6965 19.8052 25.7857 19.692 25.899C19.5777 26.0111 19.4869 26.1449 19.4251 26.2926C19.3632 26.4403 19.3316 26.5989 19.332 26.759V46.952C19.3311 47.032 19.3461 47.1114 19.3763 47.1854C19.4065 47.2595 19.4511 47.3268 19.5077 47.3833C19.5643 47.4399 19.6315 47.4846 19.7056 47.5147C19.7797 47.5449 19.859 47.56 19.939 47.559Z" fill="white"/>
</svg>
