<svg width="337" height="75" viewBox="0 0 337 75" fill="none" xmlns="http://www.w3.org/2000/svg">
<path d="M208.851 70.5621C206.596 70.5621 204.433 69.6661 202.838 68.0713C201.243 66.4765 200.347 64.3134 200.347 62.058C200.347 59.8026 201.243 57.6396 202.838 56.0448C204.433 54.45 206.596 53.5541 208.851 53.5541H335.164C334.529 52.3877 333.591 51.414 332.449 50.7354C331.308 50.0567 330.004 49.6979 328.676 49.697H77.6C74.341 49.7263 71.2255 51.0415 68.9314 53.3564C66.6373 55.6712 65.3502 58.7985 65.3502 62.0576C65.3502 65.3166 66.6373 68.4439 68.9314 70.7587C71.2255 73.0736 74.341 74.3887 77.6 74.418H328.677C330.005 74.4171 331.309 74.0585 332.45 73.3798C333.592 72.7011 334.53 71.7274 335.165 70.561L208.851 70.5621Z" fill="#FFB24D"/>
<path d="M335.331 58.241H215.237C215.053 58.241 214.876 58.1679 214.746 58.0377C214.616 57.9076 214.543 57.7311 214.543 57.547C214.543 57.3629 214.616 57.1864 214.746 57.0563C214.876 56.9261 215.053 56.853 215.237 56.853H335.331C335.515 56.853 335.692 56.9261 335.822 57.0563C335.952 57.1864 336.025 57.3629 336.025 57.547C336.025 57.7311 335.952 57.9076 335.822 58.0377C335.692 58.1679 335.515 58.241 335.331 58.241Z" fill="#CCCCCC"/>
<path d="M335.331 62.753H215.237C215.053 62.753 214.876 62.6799 214.746 62.5497C214.616 62.4196 214.543 62.2431 214.543 62.059C214.543 61.875 214.616 61.6984 214.746 61.5683C214.876 61.4381 215.053 61.365 215.237 61.365H335.331C335.515 61.365 335.692 61.4381 335.822 61.5683C335.952 61.6984 336.025 61.875 336.025 62.059C336.025 62.2431 335.952 62.4196 335.822 62.5497C335.692 62.6799 335.515 62.753 335.331 62.753Z" fill="#CCCCCC"/>
<path d="M335.331 67.264H215.237C215.053 67.264 214.876 67.1908 214.746 67.0607C214.616 66.9305 214.543 66.754 214.543 66.5699C214.543 66.3859 214.616 66.2094 214.746 66.0792C214.876 65.9491 215.053 65.876 215.237 65.876H335.331C335.515 65.876 335.692 65.9491 335.822 66.0792C335.952 66.2094 336.025 66.3859 336.025 66.5699C336.025 66.754 335.952 66.9305 335.822 67.0607C335.692 67.1908 335.515 67.264 335.331 67.264Z" fill="#CCCCCC"/>
<path d="M176.224 46.6121C173.969 46.6121 171.806 45.7161 170.211 44.1213C168.616 42.5265 167.72 40.3634 167.72 38.108C167.72 35.8526 168.616 33.6896 170.211 32.0948C171.806 30.5 173.969 29.6041 176.224 29.6041H302.537C301.902 28.4378 300.964 27.4642 299.823 26.7855C298.681 26.1068 297.378 25.7481 296.05 25.7471H44.97C41.7111 25.7764 38.5956 27.0915 36.3015 29.4064C34.0073 31.7212 32.7202 34.8485 32.7202 38.1075C32.7202 41.3666 34.0073 44.4939 36.3015 46.8087C38.5956 49.1236 41.7111 50.4387 44.97 50.468H296.049C297.377 50.4669 298.68 50.1082 299.822 49.4295C300.963 48.7508 301.901 47.7772 302.536 46.611L176.224 46.6121Z" fill="#EE8D0E"/>
<path d="M302.704 34.29H182.61C182.426 34.29 182.249 34.2169 182.119 34.0867C181.989 33.9566 181.916 33.7801 181.916 33.596C181.916 33.4119 181.989 33.2354 182.119 33.1053C182.249 32.9751 182.426 32.902 182.61 32.902H302.704C302.888 32.902 303.065 32.9751 303.195 33.1053C303.325 33.2354 303.398 33.4119 303.398 33.596C303.398 33.7801 303.325 33.9566 303.195 34.0867C303.065 34.2169 302.888 34.29 302.704 34.29Z" fill="#CCCCCC"/>
<path d="M302.704 38.8021H182.61C182.426 38.8021 182.249 38.729 182.119 38.5988C181.989 38.4687 181.916 38.2921 181.916 38.108C181.916 37.924 181.989 37.7475 182.119 37.6173C182.249 37.4872 182.426 37.4141 182.61 37.4141H302.704C302.888 37.4141 303.065 37.4872 303.195 37.6173C303.325 37.7475 303.398 37.924 303.398 38.108C303.398 38.2921 303.325 38.4687 303.195 38.5988C303.065 38.729 302.888 38.8021 302.704 38.8021Z" fill="#CCCCCC"/>
<path d="M302.704 43.315H182.61C182.426 43.315 182.249 43.2419 182.119 43.1118C181.989 42.9816 181.916 42.8051 181.916 42.621C181.916 42.437 181.989 42.2605 182.119 42.1303C182.249 42.0002 182.426 41.927 182.61 41.927H302.704C302.888 41.927 303.065 42.0002 303.195 42.1303C303.325 42.2605 303.398 42.437 303.398 42.621C303.398 42.8051 303.325 42.9816 303.195 43.1118C303.065 43.2419 302.888 43.315 302.704 43.315Z" fill="#CCCCCC"/>
<path d="M143.601 21.86C141.346 21.86 139.183 20.964 137.588 19.3692C135.993 17.7744 135.097 15.6114 135.097 13.356C135.097 11.1006 135.993 8.93758 137.588 7.34277C139.183 5.74796 141.346 4.85199 143.601 4.85199H269.91C269.275 3.68579 268.337 2.71223 267.196 2.03354C266.054 1.35485 264.751 0.996098 263.423 0.994995H12.346C9.08706 1.02431 5.97156 2.3395 3.67743 4.65436C1.3833 6.96922 0.0961914 10.0964 0.0961914 13.3555C0.0961914 16.6146 1.3833 19.7418 3.67743 22.0566C5.97156 24.3715 9.08706 25.6867 12.346 25.716H263.423C264.751 25.7149 266.054 25.3562 267.196 24.6775C268.337 23.9988 269.275 23.0252 269.91 21.859L143.601 21.86Z" fill="#FF9200"/>
<path d="M270.078 9.54303H149.984C149.8 9.54303 149.623 9.4699 149.493 9.33975C149.363 9.2096 149.29 9.03309 149.29 8.84903C149.29 8.66497 149.363 8.48843 149.493 8.35828C149.623 8.22813 149.8 8.15503 149.984 8.15503H270.078C270.262 8.15503 270.439 8.22813 270.569 8.35828C270.699 8.48843 270.772 8.66497 270.772 8.84903C270.772 9.03309 270.699 9.2096 270.569 9.33975C270.439 9.4699 270.262 9.54303 270.078 9.54303Z" fill="#CCCCCC"/>
<path d="M270.078 14.055H149.984C149.8 14.055 149.623 13.9819 149.493 13.8517C149.363 13.7216 149.29 13.5451 149.29 13.361C149.29 13.177 149.363 13.0005 149.493 12.8703C149.623 12.7402 149.8 12.667 149.984 12.667H270.078C270.262 12.667 270.439 12.7402 270.569 12.8703C270.699 13.0005 270.772 13.177 270.772 13.361C270.772 13.5451 270.699 13.7216 270.569 13.8517C270.439 13.9819 270.262 14.055 270.078 14.055Z" fill="#CCCCCC"/>
<path d="M270.078 18.5659H149.984C149.8 18.5659 149.623 18.4928 149.493 18.3627C149.363 18.2325 149.29 18.056 149.29 17.8719C149.29 17.6879 149.363 17.5114 149.493 17.3812C149.623 17.2511 149.8 17.178 149.984 17.178H270.078C270.262 17.178 270.439 17.2511 270.569 17.3812C270.699 17.5114 270.772 17.6879 270.772 17.8719C270.772 18.056 270.699 18.2325 270.569 18.3627C270.439 18.4928 270.262 18.5659 270.078 18.5659Z" fill="#CCCCCC"/>
</svg>
