<svg width="32" height="32" viewBox="0 0 32 32" fill="none" xmlns="http://www.w3.org/2000/svg">
<path d="M15.719 0.88208C12.6917 0.88208 9.73246 1.77976 7.2154 3.46161C4.69834 5.14345 2.73655 7.53393 1.57807 10.3307C0.419598 13.1275 0.116485 16.2051 0.707071 19.1741C1.29766 22.1432 2.75542 24.8705 4.896 27.0111C7.03659 29.1516 9.76385 30.6094 12.7329 31.2C15.702 31.7906 18.7795 31.4875 21.5763 30.329C24.3731 29.1705 26.7636 27.2087 28.4454 24.6916C30.1273 22.1746 31.025 19.2153 31.025 16.1881C31.0244 12.1288 29.4117 8.23601 26.5414 5.36569C23.671 2.49538 19.7782 0.88261 15.719 0.88208ZM22.708 12.8161C22.7147 12.9668 22.718 13.1181 22.718 13.2701C22.7275 14.586 22.4754 15.8906 21.9763 17.1082C21.4771 18.3258 20.7409 19.432 19.8104 20.3625C18.8799 21.293 17.7737 22.0292 16.5561 22.5284C15.3385 23.0275 14.0339 23.2797 12.718 23.2701C10.8087 23.272 8.93927 22.7241 7.33299 21.6921C7.61112 21.7248 7.89092 21.7412 8.17097 21.7411C9.75237 21.7446 11.289 21.2163 12.534 20.2411C11.8008 20.2273 11.0903 19.9846 10.5019 19.5471C9.9134 19.1097 9.47638 18.4992 9.25196 17.8011C9.77857 17.903 10.3216 17.8824 10.839 17.7411C10.0439 17.5804 9.32898 17.1497 8.81535 16.522C8.30172 15.8942 8.02106 15.1082 8.02097 14.2971C8.02097 14.2811 8.02097 14.2671 8.02097 14.2521C8.50858 14.5235 9.05417 14.6741 9.61198 14.6911C8.86808 14.1944 8.34146 13.4328 8.13932 12.5615C7.93719 11.6902 8.07472 10.7746 8.52396 10.0011C9.40618 11.0866 10.5069 11.9744 11.7545 12.6068C13.0022 13.2393 14.3689 13.6022 15.766 13.6721C15.5912 12.9189 15.6697 12.1292 15.9891 11.4252C16.3086 10.7211 16.8512 10.142 17.5331 9.7776C18.2149 9.41316 18.9979 9.28368 19.7608 9.40923C20.5237 9.53477 21.2239 9.90834 21.753 10.4721C22.5398 10.3168 23.2943 10.0283 23.984 9.61908C23.7215 10.4326 23.1724 11.123 22.439 11.5621C23.1352 11.4797 23.8151 11.2933 24.456 11.0091C23.9847 11.7147 23.3914 12.3307 22.704 12.8281L22.708 12.8161Z" fill="white"/>
</svg>
